<?xml version="1.0" standalone="no"?>
<!DOCTYPE svg PUBLIC "-//W3C//DTD SVG 1.1//EN" "http://www.w3.org/Graphics/SVG/1.1/DTD/svg11.dtd" >
<svg xmlns="http://www.w3.org/2000/svg" xmlns:xlink="http://www.w3.org/1999/xlink" version="1.1">
<metadata>
Created by FontForge 20170731 at Fri Mar  7 23:53:41 2014
 By Aleksey,,,
Copyright 2008 Jonas Schudel Dalton Maag Ltd. All rights reserved. This font may not be altered in any way without prior permission of Dalton Maag Ltd. DaMa is a trademark of Dalton Maag Ltd.
</metadata>
<defs>
<font id="Effra-Heavy" horiz-adv-x="360" >
  <font-face 
    font-family="Effra"
    font-weight="900"
    font-stretch="normal"
    units-per-em="1000"
    panose-1="2 0 9 6 8 0 0 2 0 4"
    ascent="800"
    descent="-200"
    x-height="470"
    cap-height="667"
    bbox="-173 -232 1250 955"
    underline-thickness="20"
    underline-position="-193"
    unicode-range="U+0020-FB04"
  />
<missing-glyph horiz-adv-x="560" 
d="M50 0v700h460v-700h-460zM115 54h330v592h-330v-592z" />
    <glyph glyph-name="ff" unicode="ff" horiz-adv-x="683" 
d="M87 0v340h-72v130h72v6q0 93 50 149q54 60 156 60q68 0 115 -34l-54 -114q-26 15 -47 15q-19 0 -35 -13.5t-16 -46.5v-22h142v18q0 93 58.5 145t152.5 52q90 0 150 -48l-70 -109q-32 22 -65 22q-26 0 -41.5 -16t-15.5 -43v-21h102v-130h-102v-340h-169v340h-142v-340
h-169z" />
    <glyph glyph-name="fi" unicode="fi" horiz-adv-x="605" 
d="M87 0v340h-72v130h72v6q0 76 46 133q62 76 202 76q121 0 202 -49l-61 -113q-75 33 -132 33q-88 0 -88 -73v-13h297v-470h-169v340h-128v-340h-169z" />
    <glyph glyph-name="fl" unicode="fl" horiz-adv-x="602" 
d="M87 0v340h-72v130h72v9q0 107 71 156.5t183 49.5q128 0 212 -54v-631h-169v547q-17 8 -51 8q-77 0 -77 -70v-15h79v-130h-79v-340h-169z" />
    <glyph glyph-name="ffi" unicode="ffi" horiz-adv-x="916" 
d="M87 0v340h-72v130h72v6q0 104 60 159q55 50 146 50q68 0 115 -34l-54 -114q-26 15 -47 15q-19 0 -35.5 -13.5t-16.5 -46.5v-22h143v6q0 76 46 133q62 76 202 76q121 0 202 -49l-61 -113q-75 33 -132 33q-88 0 -88 -73v-13h297v-470h-169v340h-128v-340h-169v340h-141
v-340h-170z" />
    <glyph glyph-name="ffl" unicode="ffl" horiz-adv-x="913" 
d="M87 0v340h-72v130h72v6q0 104 60 159q55 50 146 50q68 0 115 -34l-54 -114q-26 15 -47 15q-19 0 -35.5 -13.5t-16.5 -46.5v-22h143v9q0 107 71 156.5t183 49.5q128 0 212 -54v-631h-169v547q-17 8 -51 8q-77 0 -77 -70v-15h79v-130h-79v-340h-169v340h-141v-340h-170z
" />
    <glyph glyph-name=".notdef" horiz-adv-x="560" 
d="M50 0v700h460v-700h-460zM115 54h330v592h-330v-592z" />
    <glyph glyph-name=".null" horiz-adv-x="0" 
 />
    <glyph glyph-name="nonmarkingreturn" horiz-adv-x="333" 
 />
    <glyph glyph-name="space" unicode=" " horiz-adv-x="160" 
 />
    <glyph glyph-name="exclam" unicode="!" horiz-adv-x="305" 
d="M67 0v170h171v-170h-171zM70 226l-10 441h185l-10 -441h-165z" />
    <glyph glyph-name="quotedbl" unicode="&#x22;" horiz-adv-x="456" 
d="M42 401v266h153v-266h-153zM261 401v266h153v-266h-153z" />
    <glyph glyph-name="numbersign" unicode="#" horiz-adv-x="713" 
d="M88 0l35 134h-84v121h117l28 105h-82v121h115l41 149h132l-40 -149h111l41 149h133l-40 -149h79v-121h-112l-28 -105h76v-121h-109l-36 -134h-133l35 134h-111l-36 -134h-132zM289 255h111l28 105h-111z" />
    <glyph glyph-name="dollar" unicode="$" horiz-adv-x="561" 
d="M15 77l96 123q72 -69 176 -69q26 0 45 11t19 35q0 11 -6 20t-24 18t-27.5 12.5t-39.5 14.5q-37 13 -58.5 21.5t-54.5 27t-51.5 38t-32.5 50.5t-14 69q0 82 49.5 131t129.5 64v86h118v-85q95 -13 163 -72l-90 -118q-57 47 -124 47q-78 0 -78 -47q0 -22 25 -36t75 -29
q36 -12 57.5 -20t54.5 -25.5t51.5 -37.5t32.5 -52.5t14 -72.5q0 -75 -52 -124.5t-129 -64.5v-100h-118v95q-129 14 -207 90z" />
    <glyph glyph-name="percent" unicode="%" horiz-adv-x="925" 
d="M188 0l398 630h143l-394 -630h-147zM209 284q-80 0 -121.5 50t-41.5 132q0 81 41.5 130.5t121.5 49.5t122 -49.5t42 -130.5t-42 -131.5t-122 -50.5zM209 379q45 0 45 87t-45 87t-45 -87t45 -87zM714 -10q-80 0 -121.5 50t-41.5 132q0 81 41.5 130.5t121.5 49.5t122 -49.5
t42 -130.5t-42 -131.5t-122 -50.5zM714 85q45 0 45 87t-45 87t-45 -87t45 -87z" />
    <glyph glyph-name="ampersand" unicode="&#x26;" horiz-adv-x="690" 
d="M479 0l-41 48q-87 -64 -188 -64q-95 0 -158.5 53t-63.5 146q0 63 32.5 116t93.5 88q-34 52 -34 112q0 78 61.5 132t156.5 54q141 0 197 -128l-122 -71q-23 58 -69 58q-24 0 -40.5 -14.5t-16.5 -38.5q0 -26 31 -61l142 -166q21 21 91 99l111 -101q-49 -54 -105 -110
l130 -152h-208zM345 158l-104 123q-49 -32 -49 -82q0 -31 22.5 -49t54.5 -18q38 0 76 26z" />
    <glyph glyph-name="quotesingle" unicode="'" horiz-adv-x="237" 
d="M42 401v266h153v-266h-153z" />
    <glyph glyph-name="parenleft" unicode="(" horiz-adv-x="347" 
d="M322 -93h-172q-16 27 -35 74t-39.5 140.5t-20.5 185.5q0 130 33 239.5t62 159.5h172q-11 -20 -29.5 -66.5t-41.5 -144.5t-23 -188q0 -91 23 -189t41.5 -144.5t29.5 -66.5z" />
    <glyph glyph-name="parenright" unicode=")" horiz-adv-x="347" 
d="M197 -93h-172q11 20 29.5 66.5t41.5 144.5t23 189q0 90 -23 188t-41.5 144.5t-29.5 66.5h172q95 -190 95 -399q0 -210 -95 -400z" />
    <glyph glyph-name="asterisk" unicode="*" horiz-adv-x="486" 
d="M106 362l-66 114l105 42l-105 42l66 114l85 -64l-15 104h132l-13 -106l85 63l66 -114l-105 -37l105 -41l-66 -114l-86 64l14 -107h-132l16 104z" />
    <glyph glyph-name="plus" unicode="+" horiz-adv-x="561" 
d="M212 116v134h-131v132h131v136h136v-136h132v-132h-132v-134h-136z" />
    <glyph glyph-name="comma" unicode="," horiz-adv-x="287" 
d="M51 -143l62 143h-63v182h187v-182l-83 -143h-103z" />
    <glyph glyph-name="hyphen" unicode="-" horiz-adv-x="450" 
d="M60 199v162h330v-162h-330z" />
    <glyph glyph-name="period" unicode="." horiz-adv-x="292" 
d="M55 0v181h182v-181h-182z" />
    <glyph glyph-name="slash" unicode="/" horiz-adv-x="471" 
d="M17 -16l266 701h171l-263 -701h-174z" />
    <glyph glyph-name="zero" unicode="0" horiz-adv-x="575" 
d="M288 -16q-121 0 -186 90t-65 242t65 242t186 90q127 0 188.5 -88.5t61.5 -243.5t-61.5 -243.5t-188.5 -88.5zM288 138q79 0 79 178t-79 178t-79 -178t79 -178z" />
    <glyph glyph-name="one" unicode="1" horiz-adv-x="472" 
d="M59 0v144h110v302l-89 -48l-72 128l189 104h135v-486h102v-144h-375z" />
    <glyph glyph-name="two" unicode="2" horiz-adv-x="528" 
d="M31 0v92q0 54 29 102t70.5 81.5t83 62.5t70.5 56.5t29 52.5q0 23 -19 39.5t-54 16.5q-59 0 -103 -66l-122 84q33 56 95 91.5t152 35.5q100 0 159.5 -56t59.5 -131q0 -48 -25.5 -90.5t-62 -72.5t-73 -55.5t-63 -49t-27.5 -43.5h253v-150h-452z" />
    <glyph glyph-name="three" unicode="3" horiz-adv-x="544" 
d="M0 67l88 122q69 -59 136 -59q40 0 67.5 21t27.5 61q0 30 -23 54t-63 24q-44 0 -67 -13l-38 62l160 148h-233v143h415v-116l-122 -132q67 -17 104 -66t37 -123q0 -95 -76 -152t-175 -57q-144 0 -238 83z" />
    <glyph glyph-name="four" unicode="4" horiz-adv-x="564" 
d="M25 110v122l269 398h167v-385h63v-135h-63v-110h-155v110h-281zM178 245h128v188z" />
    <glyph glyph-name="five" unicode="5" horiz-adv-x="509" 
d="M-7 73l88 114q62 -57 125 -57q46 0 71 24.5t25 57.5q0 34 -25.5 59.5t-69.5 25.5q-52 0 -89 -20l-72 53l47 300h353v-143h-241l-12 -80q18 6 60 6q95 0 155 -55.5t60 -147.5q0 -97 -65.5 -161.5t-180.5 -64.5q-133 0 -229 89z" />
    <glyph glyph-name="six" unicode="6" horiz-adv-x="551" 
d="M487 610l-56 -129q-45 24 -95 24q-41 0 -77.5 -28t-49.5 -87q45 31 108 31q96 0 151 -58t55 -148q0 -98 -64 -165t-171 -67q-114 0 -182.5 78.5t-68.5 243.5q0 146 79.5 244.5t218.5 98.5q80 0 152 -38zM204 260q2 -69 26 -100t59 -31t56 23t21 60t-22.5 58t-56.5 22
q-48 0 -83 -32z" />
    <glyph glyph-name="seven" unicode="7" horiz-adv-x="496" 
d="M242 0h-174q35 113 101 259.5t116 225.5h-269v145h441v-135q-75 -128 -122.5 -241.5t-92.5 -253.5z" />
    <glyph glyph-name="eight" unicode="8" horiz-adv-x="590" 
d="M294 386q75 24 75 78q0 31 -21 49.5t-54 18.5t-54 -18.5t-21 -49.5q0 -54 75 -78zM294 277q-89 -27 -89 -88q0 -35 26 -54t63 -19t63 19t26 54q0 60 -89 88zM141 346q-32 20 -53 54.5t-21 76.5q0 74 62.5 122.5t164.5 48.5t165.5 -49t63.5 -122q0 -42 -21 -76.5
t-53 -54.5q103 -51 103 -163q0 -77 -67.5 -138t-190.5 -61q-122 0 -189 58t-67 139q0 112 103 165z" />
    <glyph glyph-name="nine" unicode="9" horiz-adv-x="545" 
d="M56 23l61 129q44 -26 98 -26q59 0 87.5 27t36.5 85q-47 -29 -113 -29q-94 0 -146 60t-52 147q0 98 62 165t168 67q114 0 182 -81t68 -259q0 -62 -16.5 -117.5t-49.5 -103.5t-91.5 -76t-134.5 -28q-90 0 -160 40zM343 374v7q0 62 -22.5 91.5t-58.5 29.5q-35 0 -56 -23
t-21 -60q0 -35 19.5 -56.5t51.5 -22.5q50 0 87 34z" />
    <glyph glyph-name="colon" unicode=":" horiz-adv-x="292" 
d="M55 0v181h182v-181h-182zM55 289v181h182v-181h-182z" />
    <glyph glyph-name="semicolon" unicode=";" horiz-adv-x="290" 
d="M56 -143l62 143h-63v182h187v-182l-83 -143h-103zM58 289v181h182v-181h-182z" />
    <glyph glyph-name="less" unicode="&#x3c;" horiz-adv-x="561" 
d="M70 266v97l353 187l60 -119l-229 -114l237 -114l-68 -124z" />
    <glyph glyph-name="equal" unicode="=" horiz-adv-x="561" 
d="M81 341v132h399v-132h-399zM81 144v132h399v-132h-399z" />
    <glyph glyph-name="greater" unicode="&#x3e;" horiz-adv-x="561" 
d="M491 363v-97l-353 -187l-68 124l237 114l-229 114l60 119z" />
    <glyph glyph-name="question" unicode="?" horiz-adv-x="541" 
d="M182 225v5q0 63 20.5 99.5t55.5 63.5q5 4 17 13t17 12.5t13.5 11.5t12 14t6.5 14t3 17q0 29 -23 41.5t-54 12.5q-67 0 -127 -60l-98 116q99 101 244 101q98 0 163.5 -49t65.5 -148q0 -53 -20.5 -86t-55.5 -60q-5 -4 -29 -23t-30.5 -26.5t-16 -25.5t-9.5 -39v-4h-155z
M173 0v170h171v-170h-171z" />
    <glyph glyph-name="at" unicode="@" horiz-adv-x="962" 
d="M216 42l-94 -61q-26 30 -56 110t-30 175q0 102 37 183t101 132t145.5 77.5t174.5 26.5q113 0 197.5 -31t135 -86.5t75 -127.5t24.5 -159q0 -150 -64 -223t-156 -73q-53 0 -82.5 13t-56.5 44q-51 -58 -143 -58q-67 0 -115.5 33t-48.5 109q0 81 62 123.5t160 42.5
q24 0 55 -4v24q0 50 -73 50q-76 0 -129 -38l-66 96q81 65 219 65q100 0 154 -47t54 -141v-135q0 -36 9.5 -50.5t30.5 -14.5q31 0 53 51.5t22 131.5q0 152 -85.5 227t-231.5 75q-64 0 -122.5 -17t-109.5 -53t-81 -99t-30 -147q0 -54 15 -108t27.5 -77.5t22.5 -38.5zM537 172
v32q-21 3 -38 3q-75 0 -75 -57q0 -51 51 -51q62 0 62 73z" />
    <glyph glyph-name="A" unicode="A" horiz-adv-x="704" 
d="M10 0l245 667h203l236 -667h-191l-43 138h-223l-44 -138h-183zM273 267h151l-74 245z" />
    <glyph glyph-name="B" unicode="B" horiz-adv-x="633" 
d="M60 0v667h271q129 0 183 -50t54 -124q0 -51 -31 -89.5t-66 -49.5q50 -16 91.5 -56.5t41.5 -106.5q0 -98 -68.5 -144.5t-204.5 -46.5h-271zM233 399h77q34 0 57 16.5t23 52.5q0 39 -23 56t-57 17h-77v-142zM233 126h90q101 0 101 80q0 78 -101 78h-90v-158z" />
    <glyph glyph-name="C" unicode="C" horiz-adv-x="683" 
d="M559 236l119 -112q-112 -141 -297 -141q-153 0 -250 98t-97 251t97 253t250 100q194 0 286 -130l-117 -118q-61 84 -156 84q-82 0 -129.5 -52t-47.5 -132q0 -81 48.5 -133.5t127.5 -52.5q56 0 93 19.5t73 65.5z" />
    <glyph glyph-name="D" unicode="D" horiz-adv-x="708" 
d="M60 0v667h256q162 0 260 -84.5t98 -252.5q0 -159 -99.5 -244.5t-259.5 -85.5h-255zM237 156h72q85 0 133.5 49t48.5 129q0 82 -46 130t-136 48h-72v-356z" />
    <glyph glyph-name="E" unicode="E" horiz-adv-x="593" 
d="M60 0v667h480v-153h-303v-103h249v-144h-249v-114h324v-153h-501z" />
    <glyph glyph-name="F" unicode="F" horiz-adv-x="545" 
d="M60 0v667h465v-155h-288v-129h223v-146h-223v-237h-177z" />
    <glyph glyph-name="G" unicode="G" horiz-adv-x="723" 
d="M400 244v137h274v-301q-113 -96 -293 -96q-162 0 -254.5 94t-92.5 257q0 153 97 251.5t250 98.5q186 0 277 -119l-115 -116q-71 71 -149 71q-83 0 -130.5 -54t-47.5 -135q0 -85 49 -136.5t130 -51.5q72 0 121 36v64h-116z" />
    <glyph glyph-name="H" unicode="H" horiz-adv-x="720" 
d="M60 0v667h177v-244h246v244h177v-667h-177v261h-246v-261h-177z" />
    <glyph glyph-name="I" unicode="I" horiz-adv-x="297" 
d="M60 0v667h177v-667h-177z" />
    <glyph glyph-name="J" unicode="J" horiz-adv-x="540" 
d="M10 85l105 109q48 -56 110 -56q84 0 84 92v437h177v-457q0 -106 -68.5 -167t-175.5 -61q-68 0 -129.5 26.5t-102.5 76.5z" />
    <glyph glyph-name="K" unicode="K" horiz-adv-x="688" 
d="M60 0v667h177v-250l199 250h207l-222 -257l257 -410h-215l-163 270l-63 -74v-196h-177z" />
    <glyph glyph-name="L" unicode="L" horiz-adv-x="566" 
d="M60 0v667h177v-511h309v-156h-486z" />
    <glyph glyph-name="M" unicode="M" horiz-adv-x="814" 
d="M46 0l31 667h169l162 -291l159 291h170l31 -667h-179l-16 391l-117 -228h-97l-130 228l-13 -391h-170z" />
    <glyph glyph-name="N" unicode="N" horiz-adv-x="712" 
d="M60 0v667h161l256 -372v372h175v-667h-151l-266 383v-383h-175z" />
    <glyph glyph-name="O" unicode="O" horiz-adv-x="762" 
d="M381 -16q-150 0 -248.5 99.5t-98.5 251.5q0 153 98.5 251.5t248.5 98.5q151 0 249 -98.5t98 -251.5q0 -152 -98 -251.5t-249 -99.5zM381 150q76 0 120 53t44 132t-44 132t-120 53t-120 -53t-44 -132t44 -132t120 -53z" />
    <glyph glyph-name="P" unicode="P" horiz-adv-x="598" 
d="M61 0v667h272q109 0 173 -57.5t64 -163.5q0 -102 -65 -163t-167 -61h-104v-222h-173zM234 361h84q36 0 57 23t21 59q0 39 -20.5 61.5t-58.5 22.5h-83v-166z" />
    <glyph glyph-name="Q" unicode="Q" horiz-adv-x="762" 
d="M607 -68l-71 85q-74 -33 -155 -33q-150 0 -248.5 99.5t-98.5 251.5q0 153 98.5 251.5t248.5 98.5q151 0 249 -98.5t98 -251.5t-98 -251l66 -79zM422 155l-68 83l88 73l73 -89q30 47 30 113q0 79 -44 132t-120 53t-120 -53t-44 -132t44 -132t120 -53q19 0 41 5z" />
    <glyph glyph-name="R" unicode="R" horiz-adv-x="628" 
d="M60 0v667h276q110 0 173.5 -56.5t63.5 -162.5q0 -127 -106 -192l143 -256h-190l-113 227h-74v-227h-173zM233 366h86q35 0 57 21.5t22 57.5q0 38 -21 60t-59 22h-85v-161z" />
    <glyph glyph-name="S" unicode="S" horiz-adv-x="590" 
d="M5 82l107 129q74 -74 172 -74q77 0 77 53q0 25 -24.5 41.5t-79.5 35.5l-37 12q-175 56 -175 189q0 95 68 156t190 61q87 0 149.5 -27t92.5 -59l-90 -114q-79 59 -151 59q-29 0 -51 -13t-22 -38q0 -19 15 -33.5t30.5 -20.5t53.5 -19l32 -10q42 -13 70.5 -26.5t60.5 -37.5
t48.5 -62t16.5 -89q0 -92 -78.5 -151.5t-192.5 -59.5q-179 0 -282 98z" />
    <glyph glyph-name="T" unicode="T" horiz-adv-x="627" 
d="M225 0v512h-205v155h587v-155h-203v-512h-179z" />
    <glyph glyph-name="U" unicode="U" horiz-adv-x="687" 
d="M56 260v407h177v-391q0 -125 110 -125q109 0 109 125v391h179v-407q0 -127 -79.5 -202t-207.5 -75q-129 0 -208.5 74.5t-79.5 202.5z" />
    <glyph glyph-name="V" unicode="V" horiz-adv-x="692" 
d="M252 0l-242 667h193l150 -464l140 464h189l-243 -667h-187z" />
    <glyph glyph-name="W" unicode="W" horiz-adv-x="931" 
d="M172 0l-162 667h187l86 -447l105 431h161l106 -431l85 447h181l-166 -667h-185l-105 422l-105 -422h-188z" />
    <glyph glyph-name="X" unicode="X" horiz-adv-x="677" 
d="M0 0l227 341l-227 326h218l111 -173l107 173h197l-207 -309l251 -358h-221l-133 205l-129 -205h-194z" />
    <glyph glyph-name="Y" unicode="Y" horiz-adv-x="672" 
d="M247 0v266l-237 401h203l130 -238l122 238h197l-238 -400v-267h-177z" />
    <glyph glyph-name="Z" unicode="Z" horiz-adv-x="623" 
d="M30 0v137l337 375h-320v155h539v-136l-331 -376h338v-155h-563z" />
    <glyph glyph-name="bracketleft" unicode="[" horiz-adv-x="368" 
d="M70 -93v799h268v-128h-119v-541h119v-130h-268z" />
    <glyph glyph-name="backslash" unicode="\" horiz-adv-x="471" 
d="M188 685l266 -701h-174l-263 701h171z" />
    <glyph glyph-name="bracketright" unicode="]" horiz-adv-x="368" 
d="M298 706v-799h-268v130h119v541h-119v128h268z" />
    <glyph glyph-name="asciicircum" unicode="^" horiz-adv-x="567" 
d="M35 293l180 375h137l180 -375h-172l-76 177l-78 -177h-171z" />
    <glyph glyph-name="underscore" unicode="_" horiz-adv-x="500" 
d="M0 -120v55h500v-55h-500z" />
    <glyph glyph-name="grave" unicode="`" horiz-adv-x="440" 
d="M207 540l-90 142h159l48 -142h-117z" />
    <glyph glyph-name="a" unicode="a" horiz-adv-x="527" 
d="M321 0l-6 44q-32 -34 -64.5 -47t-80.5 -13q-26 0 -49.5 7t-46.5 22t-37 44t-14 69q0 81 64.5 126.5t160.5 45.5q36 0 67 -4v9q0 59 -78 59q-81 0 -134 -38l-64 97q80 64 222 64q100 0 159.5 -52t59.5 -149v-284h-159zM315 172v31q-15 4 -46 4q-40 0 -61 -15.5t-21 -40.5
q0 -52 56 -52q30 0 51 17t21 56z" />
    <glyph glyph-name="b" unicode="b" horiz-adv-x="569" 
d="M218 245v-113q21 -10 59 -10q43 0 68 29t25 88q0 38 -18.5 67.5t-54.5 29.5q-40 0 -59.5 -25t-19.5 -66zM49 22v645h169v-235q22 26 56.5 37t61.5 11q95 0 149.5 -68.5t54.5 -165.5q0 -126 -72.5 -194t-211.5 -68q-109 0 -207 38z" />
    <glyph glyph-name="c" unicode="c" horiz-adv-x="483" 
d="M379 175l99 -113q-29 -33 -79.5 -55.5t-115.5 -22.5q-109 0 -181.5 70t-72.5 182q0 106 73.5 178t180.5 72q126 0 195 -78l-99 -113q-38 43 -91 43q-37 0 -63 -28t-26 -74q0 -45 26.5 -74.5t62.5 -29.5q24 0 45 9.5t27 15t19 18.5z" />
    <glyph glyph-name="d" unicode="d" horiz-adv-x="574" 
d="M371 0l-9 48q-52 -61 -129 -61q-74 0 -126 44q-78 66 -78 200q0 107 70.5 178t182.5 71q37 0 74 -11v198h169v-667h-154zM356 216v113q-26 9 -55 9q-47 0 -74.5 -29t-27.5 -84q0 -43 21 -68t62 -25q74 0 74 84z" />
    <glyph glyph-name="e" unicode="e" horiz-adv-x="533" 
d="M440 144l53 -110q-86 -50 -196 -50q-129 0 -198.5 65.5t-69.5 183.5q0 102 64.5 177.5t181.5 75.5q102 0 167 -69.5t65 -199.5v-32h-318q3 -30 29.5 -52.5t87.5 -22.5q77 0 134 34zM190 285h167q0 27 -22 51t-62 24q-39 0 -61 -24t-22 -51z" />
    <glyph glyph-name="f" unicode="f" horiz-adv-x="372" 
d="M87 0v340h-72v130h72v18q0 93 58.5 145t152.5 52q90 0 150 -48l-70 -109q-32 22 -65 22q-26 0 -41.5 -16t-15.5 -43v-21h102v-130h-102v-340h-169z" />
    <glyph glyph-name="g" unicode="g" horiz-adv-x="567" 
d="M63 -161l64 117q56 -36 120 -36q53 0 78 24t25 78v16q-37 -33 -112 -33q-98 0 -153.5 60t-55.5 160q0 120 75 187.5t199 67.5q107 0 215 -39v-403q0 -131 -63.5 -190.5t-191.5 -59.5q-122 0 -200 51zM351 219v115q-27 9 -54 9q-50 0 -74.5 -31.5t-24.5 -80.5
q0 -45 22 -69t57 -24q34 0 54 20t20 61z" />
    <glyph glyph-name="h" unicode="h" horiz-adv-x="577" 
d="M49 0v667h169v-240q45 55 136 55q79 0 127.5 -46t48.5 -140v-296h-169v252q0 81 -65 81q-78 0 -78 -82v-251h-169z" />
    <glyph glyph-name="i" unicode="i" horiz-adv-x="273" 
d="M45 534v133h183v-133h-183zM52 0v470h169v-470h-169z" />
    <glyph glyph-name="j" unicode="j" horiz-adv-x="286" 
d="M58 534v133h183v-133h-183zM-127 -151l63 115q35 -20 60 -20q41 0 55 20.5t14 64.5v441h169v-421q0 -119 -45.5 -184t-161.5 -65q-94 0 -154 49z" />
    <glyph glyph-name="k" unicode="k" horiz-adv-x="554" 
d="M49 0v667h169v-328l117 131h188l-160 -173l186 -297h-194l-104 180l-33 -35v-145h-169z" />
    <glyph glyph-name="l" unicode="l" horiz-adv-x="267" 
d="M49 0v667h169v-667h-169z" />
    <glyph glyph-name="m" unicode="m" horiz-adv-x="875" 
d="M49 0v470h163l6 -52q51 64 136 64q40 0 72.5 -14.5t41 -23.5t21.5 -25q23 25 68 44t85 19q90 0 138 -49.5t48 -136.5v-296h-169v251q0 82 -64 82q-34 0 -55.5 -22t-21.5 -60v-251h-159v251q0 82 -64 82q-33 0 -55 -22.5t-22 -59.5v-251h-169z" />
    <glyph glyph-name="n" unicode="n" horiz-adv-x="573" 
d="M49 0v470h163l6 -49q26 31 65 46t71 15q79 0 125.5 -45.5t46.5 -140.5v-296h-169v256q0 77 -61 77q-78 0 -78 -82v-251h-169z" />
    <glyph glyph-name="o" unicode="o" horiz-adv-x="560" 
d="M280 132q42 0 67 29t25 74t-25 74t-67 29t-67 -29t-25 -74t25 -74t67 -29zM29 235q0 106 70.5 178.5t180.5 72.5t180.5 -72.5t70.5 -178.5t-70.5 -178.5t-180.5 -72.5t-180.5 72.5t-70.5 178.5z" />
    <glyph glyph-name="p" unicode="p" horiz-adv-x="569" 
d="M49 -200v670h162l7 -49q40 58 118 58q95 0 149.5 -68.5t54.5 -165.5q0 -120 -70.5 -189.5t-178.5 -69.5q-33 0 -74 11v-197h-168zM218 244v-110q21 -10 59 -10q93 0 93 114q0 38 -18.5 67.5t-54.5 29.5q-40 0 -59.5 -25t-19.5 -66z" />
    <glyph glyph-name="q" unicode="q" horiz-adv-x="574" 
d="M356 -200v227q-37 -37 -110 -37q-100 0 -158.5 60.5t-58.5 180.5q0 109 74 179t205 70q109 0 217 -40v-640h-169zM356 216v113q-26 9 -55 9q-47 0 -74.5 -29t-27.5 -84q0 -43 21 -68t62 -25q74 0 74 84z" />
    <glyph glyph-name="r" unicode="r" horiz-adv-x="404" 
d="M49 0v470h163l6 -59q49 67 121 67q36 0 60 -8l-22 -144q-24 6 -49 6q-110 0 -110 -121v-211h-169z" />
    <glyph glyph-name="s" unicode="s" horiz-adv-x="486" 
d="M15 49l72 107q23 -19 63.5 -32.5t70.5 -13.5q63 0 63 34q0 15 -18.5 24t-79.5 28q-142 41 -142 144q0 61 56.5 103.5t145.5 42.5q108 0 192 -55l-57 -105q-69 40 -118 40q-52 0 -52 -28q0 -9 5.5 -16t18 -12t24.5 -8.5t33 -9.5t36 -11q68 -23 93.5 -57.5t25.5 -87.5
q0 -54 -34 -90t-80 -49t-101 -13q-63 0 -122 17t-95 48z" />
    <glyph glyph-name="t" unicode="t" horiz-adv-x="434" 
d="M79 198v142h-69v130h69v131h169v-131h116v-130h-116v-166q0 -58 55 -58q27 0 60 23l66 -104q-69 -53 -151 -53q-108 0 -153.5 56.5t-45.5 159.5z" />
    <glyph glyph-name="u" unicode="u" horiz-adv-x="571" 
d="M47 173v297h169v-257q0 -77 66 -77q37 0 54 24t17 58v252h169v-470h-163l-6 48q-26 -31 -65 -46t-71 -15q-78 0 -124 45.5t-46 140.5z" />
    <glyph glyph-name="v" unicode="v" horiz-adv-x="563" 
d="M203 0l-198 470h184l96 -281l89 281h184l-204 -470h-151z" />
    <glyph glyph-name="w" unicode="w" horiz-adv-x="790" 
d="M168 0l-163 470h167l74 -276l83 276h131l84 -276l74 276h167l-163 -470h-146l-81 242l-81 -242h-146z" />
    <glyph glyph-name="x" unicode="x" horiz-adv-x="547" 
d="M8 0l169 233l-172 237h195l74 -114l75 114h181l-165 -228l177 -242h-195l-79 118l-79 -118h-181z" />
    <glyph glyph-name="y" unicode="y" horiz-adv-x="573" 
d="M18 -169l63 115q35 -24 64 -24q25 0 39 9t25 37l14 38l-218 464h192l100 -272l95 272h176l-187 -463q-44 -107 -69 -142q-57 -76 -155 -77q-75 0 -139 43z" />
    <glyph glyph-name="z" unicode="z" horiz-adv-x="508" 
d="M34 0v104l221 232h-208v134h425v-107l-215 -233h218v-130h-441z" />
    <glyph glyph-name="braceleft" unicode="{" horiz-adv-x="317" 
d="M112 29l-14 160q-5 73 -73 73v90q68 0 73 73l14 160q7 87 49 121h141q-43 -43 -50 -130l-14 -175q-3 -34 -29.5 -59.5t-57.5 -34.5q32 -9 59 -39t30 -75l14 -175q2 -29 16 -61t32 -50h-141q-41 33 -49 122z" />
    <glyph glyph-name="bar" unicode="|" horiz-adv-x="281" 
d="M65 -164v997h151v-997h-151z" />
    <glyph glyph-name="braceright" unicode="}" horiz-adv-x="317" 
d="M219 189l-14 -160q-8 -89 -49 -122h-141q18 18 32 50t16 61l14 175q3 45 30 75t59 39q-31 9 -58 35t-29 59l-14 175q-7 87 -50 130h141q42 -34 49 -121l14 -160q5 -73 73 -73v-90q-68 0 -73 -73z" />
    <glyph glyph-name="asciitilde" unicode="~" horiz-adv-x="507" 
d="M107 196l-75 124q25 25 39.5 37.5t46 28t63.5 15.5q27 0 68 -20t61 -20t38 10.5t52 39.5l75 -124q-21 -32 -62 -57.5t-76 -25.5q-33 0 -77 21.5t-63 21.5q-21 0 -38.5 -10.5t-51.5 -40.5z" />
    <glyph glyph-name="uni00A0" unicode="&#xa0;" horiz-adv-x="160" 
 />
    <glyph glyph-name="exclamdown" unicode="&#xa1;" horiz-adv-x="305" 
d="M238 470v-170h-171v170h171zM235 244l10 -441h-185l10 441h165z" />
    <glyph glyph-name="cent" unicode="&#xa2;" horiz-adv-x="561" 
d="M278 -19v85q-91 14 -149 81t-58 166q0 93 58.5 161.5t148.5 84.5v90h101v-91q88 -15 141 -73l-99 -113q-38 43 -91 43q-37 0 -63 -28t-26 -74q0 -47 25 -75t64 -28q24 0 45 9.5t27 15t19 18.5l99 -113q-52 -58 -141 -74v-85h-101z" />
    <glyph glyph-name="sterling" unicode="&#xa3;" horiz-adv-x="561" 
d="M112 0v269h-71v96h71v46q0 109 61.5 173t170.5 64q123 0 196 -87l-99 -108q-36 40 -76 40q-39 0 -58 -26t-19 -65v-37h161v-96h-161v-114h251v-155h-427z" />
    <glyph glyph-name="currency" unicode="&#xa4;" horiz-adv-x="545" 
d="M22 156l68 71q-23 41 -23 93q0 45 20 87l-65 68l91 93l67 -70q41 18 82 18q52 0 95 -25l73 77l92 -93l-78 -81q15 -38 15 -74q0 -41 -17 -81l80 -83l-92 -91l-78 80q-40 -21 -90 -21q-42 0 -76 15l-73 -74zM262 250q29 0 49 20.5t20 49.5q0 28 -20 48t-49 20t-49 -20
t-20 -48q0 -29 20 -49.5t49 -20.5z" />
    <glyph glyph-name="yen" unicode="&#xa5;" horiz-adv-x="561" 
d="M67 100v90h123v64h-123v90h77l-144 286h183l99 -247l101 247h178l-145 -286h77v-90h-122v-64h122v-90h-122v-100h-181v100h-123z" />
    <glyph glyph-name="brokenbar" unicode="&#xa6;" horiz-adv-x="281" 
d="M65 454v379h151v-379h-151zM65 -164v379h151v-379h-151z" />
    <glyph glyph-name="section" unicode="&#xa7;" horiz-adv-x="488" 
d="M356 195l-207 133q-93 59 -93 166q0 81 60.5 136t145.5 55q43 0 84 -15t57.5 -26.5t26.5 -21.5l-82 -124q-2 1 -14 9t-21 13t-23 10t-25 5q-18 0 -29.5 -9.5t-11.5 -24.5q0 -22 27 -41l195 -130zM58 -149l82 124q1 -1 10 -7t16 -10t17 -9t20.5 -8t19.5 -3q18 0 29.5 9.5
t11.5 24.5q0 22 -27 41l-195 130l90 135l207 -133q93 -59 93 -166q0 -81 -60.5 -136t-145.5 -55q-43 0 -84 15t-57.5 26.5t-26.5 21.5z" />
    <glyph glyph-name="dieresis" unicode="&#xa8;" horiz-adv-x="440" 
d="M255 551v120h131v-120h-131zM54 551v120h131v-120h-131z" />
    <glyph glyph-name="copyright" unicode="&#xa9;" horiz-adv-x="803" 
d="M487 292l76 -61q-64 -86 -158 -86q-85 0 -138.5 55t-53.5 138q0 80 54.5 135.5t137.5 55.5q95 0 158 -87l-76 -59q-28 50 -77 50q-41 0 -65.5 -26.5t-24.5 -69.5q0 -41 24.5 -67.5t65.5 -26.5q51 0 77 49zM401 -14q-145 0 -245.5 101.5t-100.5 247.5t100.5 247.5
t246.5 101.5q145 0 245.5 -101.5t100.5 -247.5t-101 -247.5t-246 -101.5zM401 69q110 0 183.5 76.5t73.5 189.5q0 112 -74 189t-182 77q-109 0 -183.5 -77t-74.5 -189q0 -113 73.5 -189.5t183.5 -76.5z" />
    <glyph glyph-name="ordfeminine" unicode="&#xaa;" horiz-adv-x="390" 
d="M236 322l-3 27q-38 -38 -96 -38q-46 0 -74 27t-28 72q0 39 25.5 64t58 34t70.5 9q21 0 40 -3v17q0 17 -16 25.5t-35 8.5q-54 0 -92 -27l-43 65q59 45 152 45q65 0 105.5 -32t40.5 -95v-199h-105zM229 434v21q-13 3 -28 3q-20 0 -37.5 -9.5t-17.5 -27.5q0 -33 38 -33
q21 0 33 12.5t12 33.5z" />
    <glyph glyph-name="guillemotleft" unicode="&#xab;" horiz-adv-x="619" 
d="M153 41l-105 201l105 199h168l-104 -199l104 -201h-168zM399 41l-105 201l105 199h168l-104 -199l104 -201h-168z" />
    <glyph glyph-name="logicalnot" unicode="&#xac;" horiz-adv-x="561" 
d="M81 250v132h399v-266h-136v134h-263z" />
    <glyph glyph-name="uni00AD" unicode="&#xad;" horiz-adv-x="450" 
d="M60 199v162h330v-162h-330z" />
    <glyph glyph-name="registered" unicode="&#xae;" horiz-adv-x="803" 
d="M262 164v349h148q66 0 99.5 -34t33.5 -74q0 -28 -16 -55t-42 -43l83 -143h-107l-72 126h-31v-126h-96zM358 368h49q39 0 39 31q0 33 -39 33h-49v-64zM401 -14q-145 0 -245.5 101.5t-100.5 247.5t100.5 247.5t246.5 101.5q145 0 245.5 -101.5t100.5 -247.5t-101 -247.5
t-246 -101.5zM401 69q110 0 183.5 76.5t73.5 189.5q0 112 -74 189t-182 77q-109 0 -183.5 -77t-74.5 -189q0 -113 73.5 -189.5t183.5 -76.5z" />
    <glyph glyph-name="macron" unicode="&#xaf;" horiz-adv-x="440" 
d="M77 547v113h286v-113h-286z" />
    <glyph glyph-name="degree" unicode="&#xb0;" horiz-adv-x="381" 
d="M40 519q0 64 43.5 106t106.5 42q64 0 107.5 -42t43.5 -106q0 -63 -43.5 -105t-107.5 -42q-63 0 -106.5 42t-43.5 105zM190 468q23 0 36 14.5t13 36.5t-13 37t-36 15q-21 0 -34.5 -15t-13.5 -37t13.5 -36.5t34.5 -14.5z" />
    <glyph glyph-name="plusminus" unicode="&#xb1;" horiz-adv-x="561" 
d="M81 0v132h131v118h-131v132h131v136h136v-136h132v-132h-132v-118h132v-132h-399z" />
    <glyph glyph-name="twosuperior" unicode="&#xb2;" 
d="M39 294v62q0 25 17.5 49t35 37.5t47.5 32.5q59 36 59 56q0 22 -31 22q-33 0 -80 -29l-55 74q72 48 142 48q62 0 102.5 -27.5t40.5 -78.5q0 -31 -15.5 -56.5t-31.5 -37.5t-48 -31q-22 -13 -42 -27h139v-94h-280z" />
    <glyph glyph-name="threesuperior" unicode="&#xb3;" 
d="M14 328l55 82q46 -31 92 -31q43 0 43 29q0 30 -44 30q-24 0 -51 -7l-25 51l98 63h-129v92h254v-76l-72 -57q85 -13 85 -101q0 -58 -46.5 -88.5t-111.5 -30.5q-74 0 -148 44z" />
    <glyph glyph-name="acute" unicode="&#xb4;" horiz-adv-x="440" 
d="M117 540l48 142h159l-90 -142h-117z" />
    <glyph glyph-name="mu" unicode="&#xb5;" horiz-adv-x="573" 
d="M49 -200v670h169v-255q0 -79 66 -79q37 0 54 24t17 58v252h169v-470h-163l-5 43q-25 -49 -90 -49q-26 0 -48 9v-203h-169z" />
    <glyph glyph-name="paragraph" unicode="&#xb6;" horiz-adv-x="579" 
d="M366 -122v789h153v-789h-153zM309 293h-42q-242 0 -242 187q0 52 19.5 89.5t55 58t76.5 30t91 9.5h42v-374zM156 -122v368q38 -12 111 -12h42v-356h-153z" />
    <glyph glyph-name="periodcentered" unicode="&#xb7;" horiz-adv-x="292" 
d="M55 226v181h182v-181h-182z" />
    <glyph glyph-name="cedilla" unicode="&#xb8;" horiz-adv-x="440" 
d="M98 -214l15 75q40 -14 71 -14q55 0 55 27q0 24 -51 24q-38 0 -68 -13l14 69q43 12 88 12q50 0 85 -22.5t35 -69.5q0 -52 -41.5 -79t-96.5 -27q-58 0 -106 18z" />
    <glyph glyph-name="onesuperior" unicode="&#xb9;" 
d="M158 294v230q-6 -3 -30 -15.5t-37 -17.5l-43 86l122 60h107v-343h-119z" />
    <glyph glyph-name="ordmasculine" unicode="&#xba;" horiz-adv-x="423" 
d="M42 480q0 72 47.5 120t122.5 48t122 -48t47 -120t-47 -120t-122 -48t-122.5 48t-47.5 120zM212 414q27 0 42.5 18t15.5 48t-15.5 48t-42.5 18t-43 -18.5t-16 -47.5t16 -47.5t43 -18.5z" />
    <glyph glyph-name="guillemotright" unicode="&#xbb;" horiz-adv-x="619" 
d="M49 41l104 201l-104 199h168l105 -199l-105 -201h-168zM294 41l104 201l-104 199h168l105 -199l-105 -201h-168z" />
    <glyph glyph-name="onequarter" unicode="&#xbc;" horiz-adv-x="875" 
d="M130 294v230q-6 -3 -30 -15.5t-37 -17.5l-43 86l122 60h107v-343h-119zM153 0l398 630h143l-394 -630h-147zM512 58v86l149 199h126v-199h36v-86h-36v-58h-110v58h-165zM607 144h70v91z" />
    <glyph glyph-name="onehalf" unicode="&#xbd;" horiz-adv-x="925" 
d="M142 294v230q-6 -3 -30 -15.5t-37 -17.5l-43 86l122 60h107v-343h-119zM160 0l398 630h143l-394 -630h-147zM577 1v62q0 25 17.5 49t35 37.5t47.5 32.5q59 36 59 56q0 22 -31 22q-33 0 -80 -29l-55 74q72 48 142 48q62 0 102.5 -27.5t40.5 -78.5q0 -31 -15.5 -56.5
t-31.5 -37.5t-48 -31q-22 -13 -42 -27h139v-94h-280z" />
    <glyph glyph-name="threequarters" unicode="&#xbe;" horiz-adv-x="925" 
d="M57 328l55 82q46 -31 92 -31q43 0 43 29q0 30 -44 30q-24 0 -51 -7l-25 51l98 63h-129v92h254v-76l-72 -57q85 -13 85 -101q0 -58 -46.5 -88.5t-111.5 -30.5q-74 0 -148 44zM207 0l398 630h143l-394 -630h-147zM556 59v86l149 199h126v-199h36v-86h-36v-58h-110v58h-165z
M651 145h70v91z" />
    <glyph glyph-name="questiondown" unicode="&#xbf;" horiz-adv-x="541" 
d="M374 245v-5q0 -63 -20.5 -99.5t-55.5 -63.5q-5 -4 -17 -13t-17 -12.5t-13.5 -11.5t-12 -14t-6.5 -14t-3 -17q0 -29 23 -41.5t54 -12.5q67 0 127 60l98 -116q-99 -101 -244 -101q-98 0 -163.5 49t-65.5 148q0 53 20.5 86t55.5 60q5 4 29 23t30.5 26.5t16 25.5t9.5 39v4
h155zM383 470v-170h-171v170h171z" />
    <glyph glyph-name="Agrave" unicode="&#xc0;" horiz-adv-x="704" 
d="M10 0l245 667h203l236 -667h-191l-43 138h-223l-44 -138h-183zM273 267h151l-74 245zM299 717l-124 156h179l73 -156h-128z" />
    <glyph glyph-name="Aacute" unicode="&#xc1;" horiz-adv-x="704" 
d="M10 0l245 667h203l236 -667h-191l-43 138h-223l-44 -138h-183zM273 267h151l-74 245zM282 717l73 156h179l-124 -156h-128z" />
    <glyph glyph-name="Acircumflex" unicode="&#xc2;" horiz-adv-x="704" 
d="M10 0l245 667h203l236 -667h-191l-43 138h-223l-44 -138h-183zM273 267h151l-74 245zM172 717l116 156h128l116 -156h-135l-45 68l-46 -68h-134z" />
    <glyph glyph-name="Atilde" unicode="&#xc3;" horiz-adv-x="704" 
d="M10 0l245 667h203l236 -667h-191l-43 138h-223l-44 -138h-183zM273 267h151l-74 245zM200 719l-59 90q58 63 130 63q25 0 70 -21.5t70 -21.5q48 0 94 38l58 -90q-58 -63 -130 -63q-25 0 -69 21.5t-70 21.5q-49 0 -94 -38z" />
    <glyph glyph-name="Adieresis" unicode="&#xc4;" horiz-adv-x="704" 
d="M10 0l245 667h203l236 -667h-191l-43 138h-223l-44 -138h-183zM273 267h151l-74 245zM394 731v128h141v-128h-141zM169 731v128h141v-128h-141z" />
    <glyph glyph-name="Aring" unicode="&#xc5;" horiz-adv-x="704" 
d="M213 767q0 57 42 97t100 40t100 -40t42 -98q0 -60 -44 -99h5l236 -667h-191l-43 138h-223l-44 -138h-183l245 667h1q-43 38 -43 100zM273 267h151l-74 245zM355 723q18 0 30 12.5t12 30.5t-12 31t-30 13t-30 -12.5t-12 -30.5t12 -31t30 -13z" />
    <glyph glyph-name="AE" unicode="&#xc6;" horiz-adv-x="965" 
d="M0 0l367 667h545v-155h-275v-100h222v-146h-222v-110h296v-156h-462v151h-203l-75 -151h-193zM337 290h134v227h-19z" />
    <glyph glyph-name="Ccedilla" unicode="&#xc7;" horiz-adv-x="683" 
d="M559 236l119 -112q-112 -141 -297 -141q-153 0 -250 98t-97 251t97 253t250 100q194 0 286 -130l-117 -118q-61 84 -156 84q-82 0 -129.5 -52t-47.5 -132q0 -81 48.5 -133.5t127.5 -52.5q56 0 93 19.5t73 65.5zM257 -216l15 75q36 -12 72 -12q54 0 54 24q0 21 -50 21
q-40 0 -69 -10l14 69q36 10 89 10q50 0 85.5 -21.5t35.5 -68.5q0 -52 -41.5 -77.5t-97.5 -25.5q-64 0 -107 16z" />
    <glyph glyph-name="Egrave" unicode="&#xc8;" horiz-adv-x="593" 
d="M60 0v667h480v-153h-303v-103h249v-144h-249v-114h324v-153h-501zM272 717l-124 156h179l73 -156h-128z" />
    <glyph glyph-name="Eacute" unicode="&#xc9;" horiz-adv-x="593" 
d="M60 0v667h480v-153h-303v-103h249v-144h-249v-114h324v-153h-501zM238 717l73 156h179l-124 -156h-128z" />
    <glyph glyph-name="Ecircumflex" unicode="&#xca;" horiz-adv-x="593" 
d="M60 0v667h480v-153h-303v-103h249v-144h-249v-114h324v-153h-501zM127 717l116 156h128l116 -156h-135l-45 68l-46 -68h-134z" />
    <glyph glyph-name="Edieresis" unicode="&#xcb;" horiz-adv-x="593" 
d="M60 0v667h480v-153h-303v-103h249v-144h-249v-114h324v-153h-501zM346 731v128h141v-128h-141zM121 731v128h141v-128h-141z" />
    <glyph glyph-name="Igrave" unicode="&#xcc;" horiz-adv-x="297" 
d="M60 0v667h177v-667h-177zM100 717l-124 156h179l73 -156h-128z" />
    <glyph glyph-name="Iacute" unicode="&#xcd;" horiz-adv-x="297" 
d="M60 0v667h177v-667h-177zM74 717l73 156h179l-124 -156h-128z" />
    <glyph glyph-name="Icircumflex" unicode="&#xce;" horiz-adv-x="297" 
d="M60 0v667h177v-667h-177zM-30 717l116 156h128l116 -156h-135l-45 68l-46 -68h-134z" />
    <glyph glyph-name="Idieresis" unicode="&#xcf;" horiz-adv-x="297" 
d="M60 0v667h177v-667h-177zM192 731v128h141v-128h-141zM-33 731v128h141v-128h-141z" />
    <glyph glyph-name="Eth" unicode="&#xd0;" horiz-adv-x="708" 
d="M60 0v289h-60v90h60v288h256q162 0 260 -84.5t98 -252.5q0 -159 -99.5 -244.5t-259.5 -85.5h-255zM237 156h72q85 0 133.5 49t48.5 129q0 82 -46 130t-136 48h-72v-133h108v-90h-108v-133z" />
    <glyph glyph-name="Ntilde" unicode="&#xd1;" horiz-adv-x="712" 
d="M60 0v667h161l256 -372v372h175v-667h-151l-266 383v-383h-175zM210 719l-59 90q58 63 130 63q25 0 70 -21.5t70 -21.5q48 0 94 38l58 -90q-58 -63 -130 -63q-25 0 -69 21.5t-70 21.5q-49 0 -94 -38z" />
    <glyph glyph-name="Ograve" unicode="&#xd2;" horiz-adv-x="762" 
d="M381 -16q-150 0 -248.5 99.5t-98.5 251.5q0 153 98.5 251.5t248.5 98.5q151 0 249 -98.5t98 -251.5q0 -152 -98 -251.5t-249 -99.5zM381 150q76 0 120 53t44 132t-44 132t-120 53t-120 -53t-44 -132t44 -132t120 -53zM329 717l-124 156h179l73 -156h-128z" />
    <glyph glyph-name="Oacute" unicode="&#xd3;" horiz-adv-x="762" 
d="M381 -16q-150 0 -248.5 99.5t-98.5 251.5q0 153 98.5 251.5t248.5 98.5q151 0 249 -98.5t98 -251.5q0 -152 -98 -251.5t-249 -99.5zM381 150q76 0 120 53t44 132t-44 132t-120 53t-120 -53t-44 -132t44 -132t120 -53zM294 717l73 156h179l-124 -156h-128z" />
    <glyph glyph-name="Ocircumflex" unicode="&#xd4;" horiz-adv-x="762" 
d="M381 -16q-150 0 -248.5 99.5t-98.5 251.5q0 153 98.5 251.5t248.5 98.5q151 0 249 -98.5t98 -251.5q0 -152 -98 -251.5t-249 -99.5zM381 150q76 0 120 53t44 132t-44 132t-120 53t-120 -53t-44 -132t44 -132t120 -53zM201 717l116 156h128l116 -156h-135l-45 68l-46 -68
h-134z" />
    <glyph glyph-name="Otilde" unicode="&#xd5;" horiz-adv-x="762" 
d="M381 -16q-150 0 -248.5 99.5t-98.5 251.5q0 153 98.5 251.5t248.5 98.5q151 0 249 -98.5t98 -251.5q0 -152 -98 -251.5t-249 -99.5zM381 150q76 0 120 53t44 132t-44 132t-120 53t-120 -53t-44 -132t44 -132t120 -53zM229 719l-59 90q58 63 130 63q25 0 70 -21.5
t70 -21.5q48 0 94 38l58 -90q-58 -63 -130 -63q-26 0 -70 21.5t-69 21.5q-49 0 -94 -38z" />
    <glyph glyph-name="Odieresis" unicode="&#xd6;" horiz-adv-x="762" 
d="M381 -16q-150 0 -248.5 99.5t-98.5 251.5q0 153 98.5 251.5t248.5 98.5q151 0 249 -98.5t98 -251.5q0 -152 -98 -251.5t-249 -99.5zM381 150q76 0 120 53t44 132t-44 132t-120 53t-120 -53t-44 -132t44 -132t120 -53zM423 731v128h141v-128h-141zM198 731v128h141v-128
h-141z" />
    <glyph glyph-name="multiply" unicode="&#xd7;" horiz-adv-x="561" 
d="M160 101l-93 94l120 120l-120 120l93 94l120 -121l121 121l93 -94l-120 -120l120 -120l-93 -94l-121 120z" />
    <glyph glyph-name="Oslash" unicode="&#xd8;" horiz-adv-x="762" 
d="M381 -20q-81 0 -153 32l-51 -74l-79 51l51 74q-115 102 -115 268q0 153 98.5 251.5t248.5 98.5q91 0 166 -39l57 83l79 -52l-59 -85q104 -102 104 -257q0 -152 -98 -251.5t-249 -99.5zM217 331q0 -71 34 -120l199 290q-30 15 -69 15q-76 0 -120 -53t-44 -132zM381 146
q76 0 120 53t44 132q0 59 -25 105l-194 -281q24 -9 55 -9z" />
    <glyph glyph-name="Ugrave" unicode="&#xd9;" horiz-adv-x="687" 
d="M56 260v407h177v-391q0 -125 110 -125q109 0 109 125v391h179v-407q0 -127 -79.5 -202t-207.5 -75q-129 0 -208.5 74.5t-79.5 202.5zM306 717l-124 156h179l73 -156h-128z" />
    <glyph glyph-name="Uacute" unicode="&#xda;" horiz-adv-x="687" 
d="M56 260v407h177v-391q0 -125 110 -125q109 0 109 125v391h179v-407q0 -127 -79.5 -202t-207.5 -75q-129 0 -208.5 74.5t-79.5 202.5zM260 717l73 156h179l-124 -156h-128z" />
    <glyph glyph-name="Ucircumflex" unicode="&#xdb;" horiz-adv-x="687" 
d="M56 260v407h177v-391q0 -125 110 -125q109 0 109 125v391h179v-407q0 -127 -79.5 -202t-207.5 -75q-129 0 -208.5 74.5t-79.5 202.5zM163 717l116 156h128l116 -156h-135l-45 68l-46 -68h-134z" />
    <glyph glyph-name="Udieresis" unicode="&#xdc;" horiz-adv-x="687" 
d="M56 260v407h177v-391q0 -125 110 -125q109 0 109 125v391h179v-407q0 -127 -79.5 -202t-207.5 -75q-129 0 -208.5 74.5t-79.5 202.5zM385 731v128h141v-128h-141zM160 731v128h141v-128h-141z" />
    <glyph glyph-name="Yacute" unicode="&#xdd;" horiz-adv-x="672" 
d="M247 0v266l-237 401h203l130 -238l122 238h197l-238 -400v-267h-177zM278 717l73 156h179l-124 -156h-128z" />
    <glyph glyph-name="Thorn" unicode="&#xde;" horiz-adv-x="598" 
d="M61 0v667h173v-103h99q109 0 173 -57.5t64 -163.5q0 -103 -64.5 -164t-167.5 -61h-104v-118h-173zM234 258h84q36 0 57 22.5t21 59.5q0 39 -20.5 61.5t-58.5 22.5h-83v-166z" />
    <glyph glyph-name="germandbls" unicode="&#xdf;" horiz-adv-x="633" 
d="M45 0v461q0 112 70 168t187 56q94 0 158 -42t64 -128q0 -41 -19 -76.5t-38.5 -58.5t-19.5 -34t8.5 -19.5t15.5 -11.5l28 -12q26 -11 42 -20.5t35 -27t28 -45t9 -64.5q0 -76 -58.5 -119t-136.5 -43q-112 0 -172 44l75 112q39 -29 78 -29q22 0 37.5 9.5t15.5 28.5
q0 10 -4 17t-13.5 13.5t-17 10t-24.5 10.5t-24 10q-40 18 -63 43.5t-23 72.5q0 27 13 54t28.5 44.5t28.5 38.5t13 38q0 28 -19 41.5t-48 13.5q-43 0 -64 -28.5t-21 -72.5v-455h-169z" />
    <glyph glyph-name="agrave" unicode="&#xe0;" horiz-adv-x="527" 
d="M321 0l-6 44q-32 -34 -64.5 -47t-80.5 -13q-26 0 -49.5 7t-46.5 22t-37 44t-14 69q0 81 64.5 126.5t160.5 45.5q36 0 67 -4v9q0 59 -78 59q-81 0 -134 -38l-64 97q80 64 222 64q100 0 159.5 -52t59.5 -149v-284h-159zM315 172v31q-15 4 -46 4q-40 0 -61 -15.5t-21 -40.5
q0 -52 56 -52q30 0 51 17t21 56zM222 540l-90 142h159l48 -142h-117z" />
    <glyph glyph-name="aacute" unicode="&#xe1;" horiz-adv-x="527" 
d="M321 0l-6 44q-32 -34 -64.5 -47t-80.5 -13q-26 0 -49.5 7t-46.5 22t-37 44t-14 69q0 81 64.5 126.5t160.5 45.5q36 0 67 -4v9q0 59 -78 59q-81 0 -134 -38l-64 97q80 64 222 64q100 0 159.5 -52t59.5 -149v-284h-159zM315 172v31q-15 4 -46 4q-40 0 -61 -15.5t-21 -40.5
q0 -52 56 -52q30 0 51 17t21 56zM186 540l48 142h159l-90 -142h-117z" />
    <glyph glyph-name="acircumflex" unicode="&#xe2;" horiz-adv-x="527" 
d="M321 0l-6 44q-32 -34 -64.5 -47t-80.5 -13q-26 0 -49.5 7t-46.5 22t-37 44t-14 69q0 81 64.5 126.5t160.5 45.5q36 0 67 -4v9q0 59 -78 59q-81 0 -134 -38l-64 97q80 64 222 64q100 0 159.5 -52t59.5 -149v-284h-159zM315 172v31q-15 4 -46 4q-40 0 -61 -15.5t-21 -40.5
q0 -52 56 -52q30 0 51 17t21 56zM91 540l108 142h132l107 -142h-133l-41 57l-39 -57h-134z" />
    <glyph glyph-name="atilde" unicode="&#xe3;" horiz-adv-x="527" 
d="M321 0l-6 44q-32 -34 -64.5 -47t-80.5 -13q-26 0 -49.5 7t-46.5 22t-37 44t-14 69q0 81 64.5 126.5t160.5 45.5q36 0 67 -4v9q0 59 -78 59q-81 0 -134 -38l-64 97q80 64 222 64q100 0 159.5 -52t59.5 -149v-284h-159zM315 172v31q-15 4 -46 4q-40 0 -61 -15.5t-21 -40.5
q0 -52 56 -52q30 0 51 17t21 56zM112 537l-57 88q57 62 127 62q24 0 68 -21t69 -21q44 0 92 37l57 -88q-56 -61 -127 -61q-25 0 -69 20.5t-68 20.5q-44 0 -92 -37z" />
    <glyph glyph-name="adieresis" unicode="&#xe4;" horiz-adv-x="527" 
d="M321 0l-6 44q-32 -34 -64.5 -47t-80.5 -13q-26 0 -49.5 7t-46.5 22t-37 44t-14 69q0 81 64.5 126.5t160.5 45.5q36 0 67 -4v9q0 59 -78 59q-81 0 -134 -38l-64 97q80 64 222 64q100 0 159.5 -52t59.5 -149v-284h-159zM315 172v31q-15 4 -46 4q-40 0 -61 -15.5t-21 -40.5
q0 -52 56 -52q30 0 51 17t21 56zM296 551v120h131v-120h-131zM95 551v120h131v-120h-131z" />
    <glyph glyph-name="aring" unicode="&#xe5;" horiz-adv-x="527" 
d="M321 0l-6 44q-32 -34 -64.5 -47t-80.5 -13q-26 0 -49.5 7t-46.5 22t-37 44t-14 69q0 81 64.5 126.5t160.5 45.5q36 0 67 -4v9q0 59 -78 59q-81 0 -134 -38l-64 97q80 64 222 64q100 0 159.5 -52t59.5 -149v-284h-159zM315 172v31q-15 4 -46 4q-40 0 -61 -15.5t-21 -40.5
q0 -52 56 -52q30 0 51 17t21 56zM138 646q0 51 36 85t87 34t87 -34t36 -85q0 -50 -36 -84.5t-87 -34.5t-87 34.5t-36 84.5zM261 608q16 0 27 11t11 27t-11 27.5t-27 11.5t-27 -11t-11 -28q0 -16 11 -27t27 -11z" />
    <glyph glyph-name="ae" unicode="&#xe6;" horiz-adv-x="813" 
d="M103 324l-64 97q83 64 216 64q96 0 149 -53q57 54 160 54q100 0 161.5 -69t61.5 -200v-32h-318q3 -30 29.5 -52.5t87.5 -22.5q77 0 134 34l53 -110q-86 -50 -196 -50q-127 0 -188 67q-77 -67 -185 -67q-78 0 -129.5 34t-51.5 112q0 80 64.5 124t160.5 44q36 0 67 -4v9
q0 59 -78 59q-81 0 -134 -38zM315 172v31q-15 4 -46 4q-40 0 -61 -15.5t-21 -40.5q0 -52 56 -52q30 0 51 17t21 56zM470 285h167q0 30 -21.5 52.5t-61.5 22.5q-39 0 -61.5 -24t-22.5 -51z" />
    <glyph glyph-name="ccedilla" unicode="&#xe7;" horiz-adv-x="483" 
d="M379 175l99 -113q-29 -33 -79.5 -55.5t-115.5 -22.5q-109 0 -181.5 70t-72.5 182q0 106 73.5 178t180.5 72q126 0 195 -78l-99 -113q-38 43 -91 43q-37 0 -63 -28t-26 -74q0 -45 26.5 -74.5t62.5 -29.5q24 0 45 9.5t27 15t19 18.5zM168 -214l15 75q40 -14 71 -14
q55 0 55 27q0 24 -51 24q-38 0 -68 -13l14 69q44 12 88 12q50 0 85 -22.5t35 -69.5q0 -52 -41.5 -79t-96.5 -27q-58 0 -106 18z" />
    <glyph glyph-name="egrave" unicode="&#xe8;" horiz-adv-x="533" 
d="M440 144l53 -110q-86 -50 -196 -50q-129 0 -198.5 65.5t-69.5 183.5q0 102 64.5 177.5t181.5 75.5q102 0 167 -69.5t65 -199.5v-32h-318q3 -30 29.5 -52.5t87.5 -22.5q77 0 134 34zM190 285h167q0 27 -22 51t-62 24q-39 0 -61 -24t-22 -51zM229 540l-90 142h159l48 -142
h-117z" />
    <glyph glyph-name="eacute" unicode="&#xe9;" horiz-adv-x="533" 
d="M440 144l53 -110q-86 -50 -196 -50q-129 0 -198.5 65.5t-69.5 183.5q0 102 64.5 177.5t181.5 75.5q102 0 167 -69.5t65 -199.5v-32h-318q3 -30 29.5 -52.5t87.5 -22.5q77 0 134 34zM190 285h167q0 27 -22 51t-62 24q-39 0 -61 -24t-22 -51zM209 540l48 142h159l-90 -142
h-117z" />
    <glyph glyph-name="ecircumflex" unicode="&#xea;" horiz-adv-x="533" 
d="M440 144l53 -110q-86 -50 -196 -50q-129 0 -198.5 65.5t-69.5 183.5q0 102 64.5 177.5t181.5 75.5q102 0 167 -69.5t65 -199.5v-32h-318q3 -30 29.5 -52.5t87.5 -22.5q77 0 134 34zM190 285h167q0 27 -22 51t-62 24q-39 0 -61 -24t-22 -51zM95 540l108 142h132l107 -142
h-133l-41 57l-39 -57h-134z" />
    <glyph glyph-name="edieresis" unicode="&#xeb;" horiz-adv-x="533" 
d="M440 144l53 -110q-86 -50 -196 -50q-129 0 -198.5 65.5t-69.5 183.5q0 102 64.5 177.5t181.5 75.5q102 0 167 -69.5t65 -199.5v-32h-318q3 -30 29.5 -52.5t87.5 -22.5q77 0 134 34zM190 285h167q0 27 -22 51t-62 24q-39 0 -61 -24t-22 -51zM303 551v120h131v-120h-131z
M102 551v120h131v-120h-131z" />
    <glyph glyph-name="igrave" unicode="&#xec;" horiz-adv-x="273" 
d="M52 0v470h169v-470h-169zM85 540l-90 142h159l48 -142h-117z" />
    <glyph glyph-name="iacute" unicode="&#xed;" horiz-adv-x="273" 
d="M52 0v470h169v-470h-169zM72 540l48 142h159l-90 -142h-117z" />
    <glyph glyph-name="icircumflex" unicode="&#xee;" horiz-adv-x="273" 
d="M52 0v470h169v-470h-169zM-36 540l108 142h132l107 -142h-133l-41 57l-39 -57h-134z" />
    <glyph glyph-name="idieresis" unicode="&#xef;" horiz-adv-x="273" 
d="M52 0v470h169v-470h-169zM172 551v120h131v-120h-131zM-29 551v120h131v-120h-131z" />
    <glyph glyph-name="eth" unicode="&#xf0;" horiz-adv-x="563" 
d="M130 512l35 52q-29 7 -70 13l22 108q60 -4 118 -17l38 56l67 -47l-25 -37q80 -36 131.5 -99t69.5 -125.5t18 -130.5q0 -141 -71 -221t-194 -80q-104 0 -172 65.5t-68 169.5q0 99 68.5 161.5t164.5 62.5q41 0 82 -12q-32 66 -101 103l-46 -69zM368 298q-34 21 -78 21
q-43 0 -72 -24.5t-29 -71.5q0 -37 24.5 -64t61.5 -27q48 0 72 31.5t24 82.5q0 28 -3 52z" />
    <glyph glyph-name="ntilde" unicode="&#xf1;" horiz-adv-x="573" 
d="M49 0v470h163l6 -49q26 31 65 46t71 15q79 0 125.5 -45.5t46.5 -140.5v-296h-169v256q0 77 -61 77q-78 0 -78 -82v-251h-169zM127 537l-57 88q57 62 127 62q25 0 69 -21t68 -21q44 0 92 37l57 -88q-56 -61 -127 -61q-24 0 -68 20.5t-69 20.5q-44 0 -92 -37z" />
    <glyph glyph-name="ograve" unicode="&#xf2;" horiz-adv-x="560" 
d="M280 132q42 0 67 29t25 74t-25 74t-67 29t-67 -29t-25 -74t25 -74t67 -29zM29 235q0 106 70.5 178.5t180.5 72.5t180.5 -72.5t70.5 -178.5t-70.5 -178.5t-180.5 -72.5t-180.5 72.5t-70.5 178.5zM234 540l-90 142h159l48 -142h-117z" />
    <glyph glyph-name="oacute" unicode="&#xf3;" horiz-adv-x="560" 
d="M280 132q42 0 67 29t25 74t-25 74t-67 29t-67 -29t-25 -74t25 -74t67 -29zM29 235q0 106 70.5 178.5t180.5 72.5t180.5 -72.5t70.5 -178.5t-70.5 -178.5t-180.5 -72.5t-180.5 72.5t-70.5 178.5zM204 540l48 142h159l-90 -142h-117z" />
    <glyph glyph-name="ocircumflex" unicode="&#xf4;" horiz-adv-x="560" 
d="M280 132q42 0 67 29t25 74t-25 74t-67 29t-67 -29t-25 -74t25 -74t67 -29zM29 235q0 106 70.5 178.5t180.5 72.5t180.5 -72.5t70.5 -178.5t-70.5 -178.5t-180.5 -72.5t-180.5 72.5t-70.5 178.5zM107 540l108 142h132l107 -142h-133l-41 57l-39 -57h-134z" />
    <glyph glyph-name="otilde" unicode="&#xf5;" horiz-adv-x="560" 
d="M280 132q42 0 67 29t25 74t-25 74t-67 29t-67 -29t-25 -74t25 -74t67 -29zM29 235q0 106 70.5 178.5t180.5 72.5t180.5 -72.5t70.5 -178.5t-70.5 -178.5t-180.5 -72.5t-180.5 72.5t-70.5 178.5zM131 537l-57 88q57 62 127 62q25 0 69 -21t68 -21q44 0 92 37l57 -88
q-56 -61 -127 -61q-24 0 -68 20.5t-69 20.5q-44 0 -92 -37z" />
    <glyph glyph-name="odieresis" unicode="&#xf6;" horiz-adv-x="560" 
d="M280 132q42 0 67 29t25 74t-25 74t-67 29t-67 -29t-25 -74t25 -74t67 -29zM29 235q0 106 70.5 178.5t180.5 72.5t180.5 -72.5t70.5 -178.5t-70.5 -178.5t-180.5 -72.5t-180.5 72.5t-70.5 178.5zM315 551v120h131v-120h-131zM114 551v120h131v-120h-131z" />
    <glyph glyph-name="divide" unicode="&#xf7;" horiz-adv-x="561" 
d="M206 64v136h149v-136h-149zM206 432v136h149v-136h-149zM81 250v132h399v-132h-399z" />
    <glyph glyph-name="oslash" unicode="&#xf8;" horiz-adv-x="560" 
d="M63 -8l41 59q-75 75 -75 184q0 106 70.5 178.5t180.5 72.5q59 0 110 -23l40 57l64 -45l-39 -56q76 -74 76 -184q0 -106 -70.5 -178.5t-180.5 -72.5q-62 0 -111 23l-42 -60zM365 289l-111 -159q12 -3 26 -3q44 0 70.5 30t26.5 78q0 31 -12 54zM194 181l111 159
q-12 3 -25 3q-44 0 -70.5 -30t-26.5 -78q0 -29 11 -54z" />
    <glyph glyph-name="ugrave" unicode="&#xf9;" horiz-adv-x="571" 
d="M47 173v297h169v-257q0 -77 66 -77q37 0 54 24t17 58v252h169v-470h-163l-6 48q-26 -31 -65 -46t-71 -15q-78 0 -124 45.5t-46 140.5zM249 540l-90 142h159l48 -142h-117z" />
    <glyph glyph-name="uacute" unicode="&#xfa;" horiz-adv-x="571" 
d="M47 173v297h169v-257q0 -77 66 -77q37 0 54 24t17 58v252h169v-470h-163l-6 48q-26 -31 -65 -46t-71 -15q-78 0 -124 45.5t-46 140.5zM216 540l48 142h159l-90 -142h-117z" />
    <glyph glyph-name="ucircumflex" unicode="&#xfb;" horiz-adv-x="571" 
d="M47 173v297h169v-257q0 -77 66 -77q37 0 54 24t17 58v252h169v-470h-163l-6 48q-26 -31 -65 -46t-71 -15q-78 0 -124 45.5t-46 140.5zM112 540l108 142h132l107 -142h-133l-41 57l-39 -57h-134z" />
    <glyph glyph-name="udieresis" unicode="&#xfc;" horiz-adv-x="571" 
d="M47 173v297h169v-257q0 -77 66 -77q37 0 54 24t17 58v252h169v-470h-163l-6 48q-26 -31 -65 -46t-71 -15q-78 0 -124 45.5t-46 140.5zM320 551v120h131v-120h-131zM119 551v120h131v-120h-131z" />
    <glyph glyph-name="yacute" unicode="&#xfd;" horiz-adv-x="573" 
d="M18 -169l63 115q35 -24 64 -24q25 0 39 9t25 37l14 38l-218 464h192l100 -272l95 272h176l-187 -463q-44 -107 -69 -142q-57 -76 -155 -77q-75 0 -139 43zM228 540l48 142h159l-90 -142h-117z" />
    <glyph glyph-name="thorn" unicode="&#xfe;" horiz-adv-x="570" 
d="M49 -200v867h168v-246q40 58 119 58q95 0 149.5 -68.5t54.5 -165.5q0 -120 -70.5 -189.5t-178.5 -69.5q-33 0 -74 11v-197h-168zM218 244v-110q21 -10 59 -10q93 0 93 114q0 38 -18.5 67.5t-54.5 29.5q-40 0 -59.5 -25t-19.5 -66z" />
    <glyph glyph-name="ydieresis" unicode="&#xff;" horiz-adv-x="573" 
d="M18 -169l63 115q35 -24 64 -24q25 0 39 9t25 37l14 38l-218 464h192l100 -272l95 272h176l-187 -463q-44 -107 -69 -142q-57 -76 -155 -77q-75 0 -139 43zM321 551v120h131v-120h-131zM120 551v120h131v-120h-131z" />
    <glyph glyph-name="Amacron" unicode="&#x100;" horiz-adv-x="704" 
d="M10 0l245 667h203l236 -667h-191l-43 138h-223l-44 -138h-183zM273 267h151l-74 245zM192 737v116h319v-116h-319z" />
    <glyph glyph-name="amacron" unicode="&#x101;" horiz-adv-x="527" 
d="M321 0l-6 44q-32 -34 -64.5 -47t-80.5 -13q-26 0 -49.5 7t-46.5 22t-37 44t-14 69q0 81 64.5 126.5t160.5 45.5q36 0 67 -4v9q0 59 -78 59q-81 0 -134 -38l-64 97q80 64 222 64q100 0 159.5 -52t59.5 -149v-284h-159zM315 172v31q-15 4 -46 4q-40 0 -61 -15.5t-21 -40.5
q0 -52 56 -52q30 0 51 17t21 56zM118 547v113h286v-113h-286z" />
    <glyph glyph-name="Abreve" unicode="&#x102;" horiz-adv-x="704" 
d="M10 0l245 667h203l236 -667h-191l-43 138h-223l-44 -138h-183zM273 267h151l-74 245zM187 863h118q1 -21 13 -33.5t33 -12.5t33.5 12.5t12.5 33.5h119q0 -69 -47.5 -109t-117.5 -40t-117 40t-47 109z" />
    <glyph glyph-name="abreve" unicode="&#x103;" horiz-adv-x="527" 
d="M321 0l-6 44q-32 -34 -64.5 -47t-80.5 -13q-26 0 -49.5 7t-46.5 22t-37 44t-14 69q0 81 64.5 126.5t160.5 45.5q36 0 67 -4v9q0 59 -78 59q-81 0 -134 -38l-64 97q80 64 222 64q100 0 159.5 -52t59.5 -149v-284h-159zM315 172v31q-15 4 -46 4q-40 0 -61 -15.5t-21 -40.5
q0 -52 56 -52q30 0 51 17t21 56zM103 682h116q2 -46 42 -46t42 46h116q0 -67 -45.5 -104.5t-112.5 -37.5t-112.5 37.5t-45.5 104.5z" />
    <glyph glyph-name="Aogonek" unicode="&#x104;" horiz-adv-x="704" 
d="M594 0h-91l-43 138h-223l-44 -138h-183l245 667h203l236 -667q-50 -50 -50 -77q0 -23 25 -23q27 0 50 17l33 -86q-53 -35 -118 -35q-45 0 -73.5 21.5t-28.5 64.5q0 54 62 118zM273 267h151l-74 245z" />
    <glyph glyph-name="aogonek" unicode="&#x105;" horiz-adv-x="527" 
d="M321 0l-6 44q-32 -34 -64.5 -47t-80.5 -13q-26 0 -49.5 7t-46.5 22t-37 44t-14 69q0 81 64.5 126.5t160.5 45.5q36 0 67 -4v9q0 59 -78 59q-81 0 -134 -38l-64 97q80 64 222 64q100 0 159.5 -52t59.5 -149v-284q-19 -14 -37.5 -36.5t-18.5 -38.5q0 -22 25 -22q22 0 49 16
l32 -83q-49 -34 -116 -34q-43 0 -71 20.5t-28 62.5q0 51 60 115h-54zM315 172v31q-15 4 -46 4q-40 0 -61 -15.5t-21 -40.5q0 -52 56 -52q30 0 51 17t21 56z" />
    <glyph glyph-name="Cacute" unicode="&#x106;" horiz-adv-x="683" 
d="M559 236l119 -112q-112 -141 -297 -141q-153 0 -250 98t-97 251t97 253t250 100q194 0 286 -130l-117 -118q-61 84 -156 84q-82 0 -129.5 -52t-47.5 -132q0 -81 48.5 -133.5t127.5 -52.5q56 0 93 19.5t73 65.5zM299 717l73 156h179l-124 -156h-128z" />
    <glyph glyph-name="cacute" unicode="&#x107;" horiz-adv-x="483" 
d="M379 175l99 -113q-29 -33 -79.5 -55.5t-115.5 -22.5q-109 0 -181.5 70t-72.5 182q0 106 73.5 178t180.5 72q126 0 195 -78l-99 -113q-38 43 -91 43q-37 0 -63 -28t-26 -74q0 -45 26.5 -74.5t62.5 -29.5q24 0 45 9.5t27 15t19 18.5zM213 540l48 142h159l-90 -142h-117z
" />
    <glyph glyph-name="Ccircumflex" unicode="&#x108;" horiz-adv-x="683" 
d="M559 236l119 -112q-112 -141 -297 -141q-153 0 -250 98t-97 251t97 253t250 100q194 0 286 -130l-117 -118q-61 84 -156 84q-82 0 -129.5 -52t-47.5 -132q0 -81 48.5 -133.5t127.5 -52.5q56 0 93 19.5t73 65.5zM190 717l116 156h128l116 -156h-135l-45 68l-46 -68h-134z
" />
    <glyph glyph-name="ccircumflex" unicode="&#x109;" horiz-adv-x="483" 
d="M379 175l99 -113q-29 -33 -79.5 -55.5t-115.5 -22.5q-109 0 -181.5 70t-72.5 182q0 106 73.5 178t180.5 72q126 0 195 -78l-99 -113q-38 43 -91 43q-37 0 -63 -28t-26 -74q0 -45 26.5 -74.5t62.5 -29.5q24 0 45 9.5t27 15t19 18.5zM101 540l108 142h132l107 -142h-133
l-41 57l-39 -57h-134z" />
    <glyph glyph-name="Cdotaccent" unicode="&#x10a;" horiz-adv-x="683" 
d="M559 236l119 -112q-112 -141 -297 -141q-153 0 -250 98t-97 251t97 253t250 100q194 0 286 -130l-117 -118q-61 84 -156 84q-82 0 -129.5 -52t-47.5 -132q0 -81 48.5 -133.5t127.5 -52.5q56 0 93 19.5t73 65.5zM310 727v136h148v-136h-148z" />
    <glyph glyph-name="cdotaccent" unicode="&#x10b;" horiz-adv-x="483" 
d="M379 175l99 -113q-29 -33 -79.5 -55.5t-115.5 -22.5q-109 0 -181.5 70t-72.5 182q0 106 73.5 178t180.5 72q126 0 195 -78l-99 -113q-38 43 -91 43q-37 0 -63 -28t-26 -74q0 -45 26.5 -74.5t62.5 -29.5q24 0 45 9.5t27 15t19 18.5zM210 547v128h140v-128h-140z" />
    <glyph glyph-name="Ccaron" unicode="&#x10c;" horiz-adv-x="683" 
d="M559 236l119 -112q-112 -141 -297 -141q-153 0 -250 98t-97 251t97 253t250 100q194 0 286 -130l-117 -118q-61 84 -156 84q-82 0 -129.5 -52t-47.5 -132q0 -81 48.5 -133.5t127.5 -52.5q56 0 93 19.5t73 65.5zM323 717l-116 156h135l45 -68l46 68h134l-116 -156h-128z
" />
    <glyph glyph-name="ccaron" unicode="&#x10d;" horiz-adv-x="483" 
d="M379 175l99 -113q-29 -33 -79.5 -55.5t-115.5 -22.5q-109 0 -181.5 70t-72.5 182q0 106 73.5 178t180.5 72q126 0 195 -78l-99 -113q-38 43 -91 43q-37 0 -63 -28t-26 -74q0 -45 26.5 -74.5t62.5 -29.5q24 0 45 9.5t27 15t19 18.5zM204 540l-107 142h133l41 -57l40 57
h133l-107 -142h-133z" />
    <glyph glyph-name="Dcaron" unicode="&#x10e;" horiz-adv-x="708" 
d="M60 0v667h256q162 0 260 -84.5t98 -252.5q0 -159 -99.5 -244.5t-259.5 -85.5h-255zM237 156h72q85 0 133.5 49t48.5 129q0 82 -46 130t-136 48h-72v-356zM249 717l-116 156h135l45 -68l46 68h134l-116 -156h-128z" />
    <glyph glyph-name="dcaron" unicode="&#x10f;" horiz-adv-x="706" 
d="M371 0l-9 48q-52 -61 -129 -61q-74 0 -126 44q-78 66 -78 200q0 107 70.5 178t182.5 71q37 0 74 -11v198h169v-667h-154zM356 216v113q-26 9 -55 9q-47 0 -74.5 -29t-27.5 -84q0 -43 21 -68t62 -25q74 0 74 84zM580 498v169h136l-41 -169h-95z" />
    <glyph glyph-name="Dcroat" unicode="&#x110;" horiz-adv-x="708" 
d="M60 0v289h-60v90h60v288h256q162 0 260 -84.5t98 -252.5q0 -159 -99.5 -244.5t-259.5 -85.5h-255zM237 156h72q85 0 133.5 49t48.5 129q0 82 -46 130t-136 48h-72v-133h108v-90h-108v-133z" />
    <glyph glyph-name="dcroat" unicode="&#x111;" horiz-adv-x="570" 
d="M371 0l-9 48q-52 -61 -129 -61q-74 0 -126 44q-78 66 -78 195q0 107 70 175t183 68q37 0 74 -11v61h-150v87h150v61h169v-61h57v-87h-57v-519h-154zM356 216v102q-26 9 -55 9q-47 0 -74.5 -26t-27.5 -81q0 -88 83 -88q74 0 74 84z" />
    <glyph glyph-name="Emacron" unicode="&#x112;" horiz-adv-x="593" 
d="M60 0v667h480v-153h-303v-103h249v-144h-249v-114h324v-153h-501zM154 737v116h319v-116h-319z" />
    <glyph glyph-name="emacron" unicode="&#x113;" horiz-adv-x="533" 
d="M440 144l53 -110q-86 -50 -196 -50q-129 0 -198.5 65.5t-69.5 183.5q0 102 64.5 177.5t181.5 75.5q102 0 167 -69.5t65 -199.5v-32h-318q3 -30 29.5 -52.5t87.5 -22.5q77 0 134 34zM190 285h167q0 27 -22 51t-62 24q-39 0 -61 -24t-22 -51zM125 547v113h286v-113h-286z
" />
    <glyph glyph-name="Ebreve" unicode="&#x114;" horiz-adv-x="593" 
d="M60 0v667h480v-153h-303v-103h249v-144h-249v-114h324v-153h-501zM145 863h118q1 -21 13 -33.5t33 -12.5t33.5 12.5t12.5 33.5h119q0 -69 -47.5 -109t-117.5 -40t-117 40t-47 109z" />
    <glyph glyph-name="ebreve" unicode="&#x115;" horiz-adv-x="533" 
d="M440 144l53 -110q-86 -50 -196 -50q-129 0 -198.5 65.5t-69.5 183.5q0 102 64.5 177.5t181.5 75.5q102 0 167 -69.5t65 -199.5v-32h-318q3 -30 29.5 -52.5t87.5 -22.5q77 0 134 34zM190 285h167q0 27 -22 51t-62 24q-39 0 -61 -24t-22 -51zM113 682h116q2 -46 42 -46
t42 46h116q0 -67 -45.5 -104.5t-112.5 -37.5t-112.5 37.5t-45.5 104.5z" />
    <glyph glyph-name="Edotaccent" unicode="&#x116;" horiz-adv-x="593" 
d="M60 0v667h480v-153h-303v-103h249v-144h-249v-114h324v-153h-501zM230 727v136h148v-136h-148z" />
    <glyph glyph-name="edotaccent" unicode="&#x117;" horiz-adv-x="533" 
d="M440 144l53 -110q-86 -50 -196 -50q-129 0 -198.5 65.5t-69.5 183.5q0 102 64.5 177.5t181.5 75.5q102 0 167 -69.5t65 -199.5v-32h-318q3 -30 29.5 -52.5t87.5 -22.5q77 0 134 34zM190 285h167q0 27 -22 51t-62 24q-39 0 -61 -24t-22 -51zM205 547v128h140v-128h-140z
" />
    <glyph glyph-name="Eogonek" unicode="&#x118;" horiz-adv-x="593" 
d="M60 0v667h480v-153h-303v-103h249v-144h-249v-114h324v-153h-42q-52 -52 -52 -77q0 -23 25 -23q27 0 50 17l33 -86q-53 -35 -118 -35q-45 0 -73.5 21.5t-28.5 64.5q0 54 62 118h-357z" />
    <glyph glyph-name="eogonek" unicode="&#x119;" horiz-adv-x="533" 
d="M459 -81l32 -83q-49 -34 -116 -34q-43 0 -71 20.5t-28 62.5q0 48 46 100q-4 0 -12.5 -0.5t-12.5 -0.5q-129 0 -198.5 65.5t-69.5 183.5q0 102 64.5 177.5t181.5 75.5q102 0 167 -69.5t65 -199.5v-32h-318q3 -30 29.5 -52.5t87.5 -22.5q77 0 134 34l53 -110
q-25 -15 -52 -24q-56 -39 -56 -78q0 -29 25 -29q22 0 49 16zM190 285h167q0 27 -22 51t-62 24q-39 0 -61 -24t-22 -51z" />
    <glyph glyph-name="Ecaron" unicode="&#x11a;" horiz-adv-x="593" 
d="M60 0v667h480v-153h-303v-103h249v-144h-249v-114h324v-153h-501zM248 717l-116 156h135l45 -68l46 68h134l-116 -156h-128z" />
    <glyph glyph-name="ecaron" unicode="&#x11b;" horiz-adv-x="533" 
d="M440 144l53 -110q-86 -50 -196 -50q-129 0 -198.5 65.5t-69.5 183.5q0 102 64.5 177.5t181.5 75.5q102 0 167 -69.5t65 -199.5v-32h-318q3 -30 29.5 -52.5t87.5 -22.5q77 0 134 34zM190 285h167q0 27 -22 51t-62 24q-39 0 -61 -24t-22 -51zM208 540l-107 142h133l41 -57
l40 57h133l-107 -142h-133z" />
    <glyph glyph-name="Gcircumflex" unicode="&#x11c;" horiz-adv-x="723" 
d="M400 244v137h274v-301q-113 -96 -293 -96q-162 0 -254.5 94t-92.5 257q0 153 97 251.5t250 98.5q186 0 277 -119l-115 -116q-71 71 -149 71q-83 0 -130.5 -54t-47.5 -135q0 -85 49 -136.5t130 -51.5q72 0 121 36v64h-116zM189 717l116 156h128l116 -156h-135l-45 68
l-46 -68h-134z" />
    <glyph glyph-name="gcircumflex" unicode="&#x11d;" horiz-adv-x="567" 
d="M63 -161l64 117q56 -36 120 -36q53 0 78 24t25 78v16q-37 -33 -112 -33q-98 0 -153.5 60t-55.5 160q0 120 75 187.5t199 67.5q107 0 215 -39v-403q0 -131 -63.5 -190.5t-191.5 -59.5q-122 0 -200 51zM351 219v115q-27 9 -54 9q-50 0 -74.5 -31.5t-24.5 -80.5
q0 -45 22 -69t57 -24q34 0 54 20t20 61zM129 540l108 142h132l107 -142h-133l-41 57l-39 -57h-134z" />
    <glyph glyph-name="Gbreve" unicode="&#x11e;" horiz-adv-x="723" 
d="M400 244v137h274v-301q-113 -96 -293 -96q-162 0 -254.5 94t-92.5 257q0 153 97 251.5t250 98.5q186 0 277 -119l-115 -116q-71 71 -149 71q-83 0 -130.5 -54t-47.5 -135q0 -85 49 -136.5t130 -51.5q72 0 121 36v64h-116zM209 863h118q1 -21 13 -33.5t33 -12.5t33.5 12.5
t12.5 33.5h119q0 -69 -47.5 -109t-117.5 -40t-117 40t-47 109z" />
    <glyph glyph-name="gbreve" unicode="&#x11f;" horiz-adv-x="567" 
d="M63 -161l64 117q56 -36 120 -36q53 0 78 24t25 78v16q-37 -33 -112 -33q-98 0 -153.5 60t-55.5 160q0 120 75 187.5t199 67.5q107 0 215 -39v-403q0 -131 -63.5 -190.5t-191.5 -59.5q-122 0 -200 51zM351 219v115q-27 9 -54 9q-50 0 -74.5 -31.5t-24.5 -80.5
q0 -45 22 -69t57 -24q34 0 54 20t20 61zM145 682h116q2 -46 42 -46t42 46h116q0 -67 -45.5 -104.5t-112.5 -37.5t-112.5 37.5t-45.5 104.5z" />
    <glyph glyph-name="Gdotaccent" unicode="&#x120;" horiz-adv-x="723" 
d="M400 244v137h274v-301q-113 -96 -293 -96q-162 0 -254.5 94t-92.5 257q0 153 97 251.5t250 98.5q186 0 277 -119l-115 -116q-71 71 -149 71q-83 0 -130.5 -54t-47.5 -135q0 -85 49 -136.5t130 -51.5q72 0 121 36v64h-116zM303 727v136h148v-136h-148z" />
    <glyph glyph-name="gdotaccent" unicode="&#x121;" horiz-adv-x="567" 
d="M63 -161l64 117q56 -36 120 -36q53 0 78 24t25 78v16q-37 -33 -112 -33q-98 0 -153.5 60t-55.5 160q0 120 75 187.5t199 67.5q107 0 215 -39v-403q0 -131 -63.5 -190.5t-191.5 -59.5q-122 0 -200 51zM351 219v115q-27 9 -54 9q-50 0 -74.5 -31.5t-24.5 -80.5
q0 -45 22 -69t57 -24q34 0 54 20t20 61zM233 547v128h140v-128h-140z" />
    <glyph glyph-name="Gcommaaccent" unicode="&#x122;" horiz-adv-x="723" 
d="M400 244v137h274v-301q-113 -96 -293 -96q-162 0 -254.5 94t-92.5 257q0 153 97 251.5t250 98.5q186 0 277 -119l-115 -116q-71 71 -149 71q-83 0 -130.5 -54t-47.5 -135q0 -85 49 -136.5t130 -51.5q72 0 121 36v64h-116zM253 -209l53 158h172l-99 -158h-126z" />
    <glyph glyph-name="gcommaaccent" unicode="&#x123;" horiz-adv-x="567" 
d="M63 -161l64 117q56 -36 120 -36q53 0 78 24t25 78v16q-37 -33 -112 -33q-98 0 -153.5 60t-55.5 160q0 120 75 187.5t199 67.5q107 0 215 -39v-403q0 -131 -63.5 -190.5t-191.5 -59.5q-122 0 -200 51zM351 219v115q-27 9 -54 9q-50 0 -74.5 -31.5t-24.5 -80.5
q0 -45 22 -69t57 -24q34 0 54 20t20 61zM215 540l90 142h117l-48 -142h-159z" />
    <glyph glyph-name="Hcircumflex" unicode="&#x124;" horiz-adv-x="720" 
d="M60 0v667h177v-244h246v244h177v-667h-177v261h-246v-261h-177zM179 717l116 156h128l116 -156h-135l-45 68l-46 -68h-134z" />
    <glyph glyph-name="hcircumflex" unicode="&#x125;" horiz-adv-x="577" 
d="M49 0v667h169v-240q45 55 136 55q79 0 127.5 -46t48.5 -140v-296h-169v252q0 81 -65 81q-78 0 -78 -82v-251h-169zM43 717l116 156h128l116 -156h-135l-45 68l-46 -68h-134z" />
    <glyph glyph-name="Hbar" unicode="&#x126;" horiz-adv-x="720" 
d="M60 0v485h-57v89h57v93h177v-93h246v93h177v-93h57v-89h-57v-485h-177v232h-246v-232h-177zM237 394h246v91h-246v-91z" />
    <glyph glyph-name="hbar" unicode="&#x127;" horiz-adv-x="567" 
d="M45 0v520h-57v86h57v61h169v-61h150v-86h-150v-103q45 55 136 55q79 0 127.5 -46t48.5 -140v-286h-169v242q0 81 -65 81q-78 0 -78 -82v-241h-169z" />
    <glyph glyph-name="Itilde" unicode="&#x128;" horiz-adv-x="297" 
d="M60 0v667h177v-667h-177zM-2 719l-59 90q58 63 130 63q25 0 70 -21.5t70 -21.5q48 0 94 38l58 -90q-58 -63 -130 -63q-25 0 -69 21.5t-70 21.5q-49 0 -94 -38z" />
    <glyph glyph-name="itilde" unicode="&#x129;" horiz-adv-x="273" 
d="M52 0v470h169v-470h-169zM-12 537l-57 88q57 62 127 62q24 0 68 -21t69 -21q44 0 92 37l57 -88q-56 -61 -127 -61q-25 0 -69 20.5t-68 20.5q-44 0 -92 -37z" />
    <glyph glyph-name="Imacron" unicode="&#x12a;" horiz-adv-x="297" 
d="M60 0v667h177v-667h-177zM-10 737v116h319v-116h-319z" />
    <glyph glyph-name="imacron" unicode="&#x12b;" horiz-adv-x="273" 
d="M52 0v470h169v-470h-169zM-6 547v113h286v-113h-286z" />
    <glyph glyph-name="Ibreve" unicode="&#x12c;" horiz-adv-x="297" 
d="M60 0v667h177v-667h-177zM-15 863h118q1 -21 13 -33.5t33 -12.5t33.5 12.5t12.5 33.5h119q0 -69 -47.5 -109t-117.5 -40t-117 40t-47 109z" />
    <glyph glyph-name="ibreve" unicode="&#x12d;" horiz-adv-x="273" 
d="M52 0v470h169v-470h-169zM-21 682h116q2 -46 42 -46t42 46h116q0 -67 -45.5 -104.5t-112.5 -37.5t-112.5 37.5t-45.5 104.5z" />
    <glyph glyph-name="Iogonek" unicode="&#x12e;" horiz-adv-x="297" 
d="M60 0v667h177v-667h4q-52 -52 -52 -77q0 -23 25 -23q27 0 50 17l33 -86q-53 -35 -118 -35q-45 0 -73.5 21.5t-28.5 64.5q0 54 62 118h-79z" />
    <glyph glyph-name="iogonek" unicode="&#x12f;" horiz-adv-x="273" 
d="M52 0v470h169v-470q-51 -51 -51 -75q0 -22 25 -22q22 0 49 16l32 -83q-49 -34 -116 -34q-43 0 -71 20.5t-28 62.5q0 51 60 115h-69zM45 534v133h183v-133h-183z" />
    <glyph glyph-name="Idotaccent" unicode="&#x130;" horiz-adv-x="297" 
d="M60 0v667h177v-667h-177zM76 727v136h148v-136h-148z" />
    <glyph glyph-name="dotlessi" unicode="&#x131;" horiz-adv-x="273" 
d="M52 0v470h169v-470h-169z" />
    <glyph glyph-name="IJ" unicode="&#x132;" horiz-adv-x="843" 
d="M60 0v667h177v-667h-177zM313 85l105 109q48 -56 110 -56q84 0 84 92v437h177v-457q0 -106 -68.5 -167t-175.5 -61q-68 0 -129.5 26.5t-102.5 76.5z" />
    <glyph glyph-name="ij" unicode="&#x133;" horiz-adv-x="548" 
d="M45 534v133h183v-133h-183zM52 0v470h169v-470h-169zM320 534v133h183v-133h-183zM135 -151l63 115q35 -20 60 -20q41 0 55 20.5t14 64.5v441h169v-421q0 -119 -45.5 -184t-161.5 -65q-94 0 -154 49z" />
    <glyph glyph-name="Jcircumflex" unicode="&#x134;" horiz-adv-x="540" 
d="M10 85l105 109q48 -56 110 -56q84 0 84 92v437h177v-457q0 -106 -68.5 -167t-175.5 -61q-68 0 -129.5 26.5t-102.5 76.5zM215 717l116 156h128l116 -156h-135l-45 68l-46 -68h-134z" />
    <glyph glyph-name="jcircumflex" unicode="&#x135;" horiz-adv-x="286" 
d="M-127 -163l63 115q35 -20 60 -20q41 0 55 20.5t14 64.5v453h169v-433q0 -119 -45.5 -184t-161.5 -65q-94 0 -154 49zM-29 540l108 142h132l107 -142h-133l-41 57l-39 -57h-134z" />
    <glyph glyph-name="Kcommaaccent" unicode="&#x136;" horiz-adv-x="688" 
d="M60 0v667h177v-250l199 250h207l-222 -257l257 -410h-215l-163 270l-63 -74v-196h-177zM210 -209l53 158h172l-99 -158h-126z" />
    <glyph glyph-name="kcommaaccent" unicode="&#x137;" horiz-adv-x="544" 
d="M49 0v667h169v-328l117 131h188l-160 -173l186 -297h-194l-104 180l-33 -35v-145h-169zM168 -193l48 142h159l-90 -142h-117z" />
    <glyph glyph-name="kgreenlandic" unicode="&#x138;" horiz-adv-x="554" 
d="M49 0v470h169v-131l117 131h188l-160 -173l186 -297h-194l-104 180l-33 -35v-145h-169z" />
    <glyph glyph-name="Lacute" unicode="&#x139;" horiz-adv-x="566" 
d="M60 0v667h177v-511h309v-156h-486zM78 717l73 156h179l-124 -156h-128z" />
    <glyph glyph-name="lacute" unicode="&#x13a;" horiz-adv-x="267" 
d="M49 0v667h169v-667h-169zM64 717l73 156h179l-124 -156h-128z" />
    <glyph glyph-name="Lcommaaccent" unicode="&#x13b;" horiz-adv-x="566" 
d="M60 0v667h177v-511h309v-156h-486zM177 -209l53 158h172l-99 -158h-126z" />
    <glyph glyph-name="lcommaaccent" unicode="&#x13c;" horiz-adv-x="267" 
d="M49 0v667h169v-667h-169zM8 -193l48 142h159l-90 -142h-117z" />
    <glyph glyph-name="Lcaron" unicode="&#x13d;" horiz-adv-x="566" 
d="M315 474v193h149l-40 -193h-109zM60 0v667h177v-511h309v-156h-486z" />
    <glyph glyph-name="lcaron" unicode="&#x13e;" horiz-adv-x="399" 
d="M49 0v667h169v-667h-169zM273 498v169h136l-41 -169h-95z" />
    <glyph glyph-name="Ldot" unicode="&#x13f;" horiz-adv-x="566" 
d="M60 0v667h177v-511h309v-156h-486zM354 333v136h148v-136h-148z" />
    <glyph glyph-name="ldot" unicode="&#x140;" horiz-adv-x="489" 
d="M49 0v667h169v-667h-169zM304 293v136h148v-136h-148z" />
    <glyph glyph-name="Lslash" unicode="&#x141;" horiz-adv-x="566" 
d="M60 0v257l-59 -36v104l59 36v306h177v-196l100 61v-102l-100 -62v-212h309v-156h-486z" />
    <glyph glyph-name="lslash" unicode="&#x142;" horiz-adv-x="312" 
d="M73 0v250l-58 -36v112l58 36v305h169v-201l65 40v-111l-65 -41v-354h-169z" />
    <glyph glyph-name="Nacute" unicode="&#x143;" horiz-adv-x="712" 
d="M60 0v667h161l256 -372v372h175v-667h-151l-266 383v-383h-175zM271 717l73 156h179l-124 -156h-128z" />
    <glyph glyph-name="nacute" unicode="&#x144;" horiz-adv-x="573" 
d="M49 0v470h163l6 -49q26 31 65 46t71 15q79 0 125.5 -45.5t46.5 -140.5v-296h-169v256q0 77 -61 77q-78 0 -78 -82v-251h-169zM227 540l48 142h159l-90 -142h-117z" />
    <glyph glyph-name="Ncommaaccent" unicode="&#x145;" horiz-adv-x="712" 
d="M60 0v667h161l256 -372v372h175v-667h-151l-266 383v-383h-175zM243 -209l53 158h172l-99 -158h-126z" />
    <glyph glyph-name="ncommaaccent" unicode="&#x146;" horiz-adv-x="573" 
d="M49 0v470h163l6 -49q26 31 65 46t71 15q79 0 125.5 -45.5t46.5 -140.5v-296h-169v256q0 77 -61 77q-78 0 -78 -82v-251h-169zM174 -193l48 142h159l-90 -142h-117z" />
    <glyph glyph-name="Ncaron" unicode="&#x147;" horiz-adv-x="712" 
d="M60 0v667h161l256 -372v372h175v-667h-151l-266 383v-383h-175zM281 717l-116 156h135l45 -68l46 68h134l-116 -156h-128z" />
    <glyph glyph-name="ncaron" unicode="&#x148;" horiz-adv-x="573" 
d="M49 0v470h163l6 -49q26 31 65 46t71 15q79 0 125.5 -45.5t46.5 -140.5v-296h-169v256q0 77 -61 77q-78 0 -78 -82v-251h-169zM224 540l-107 142h133l41 -57l40 57h133l-107 -142h-133z" />
    <glyph glyph-name="napostrophe" unicode="&#x149;" horiz-adv-x="573" 
d="M49 0v470h163l6 -49q26 31 65 46t71 15q79 0 125.5 -45.5t46.5 -140.5v-296h-169v256q0 77 -61 77q-78 0 -78 -82v-251h-169zM2 527l7 155h137l-43 -155h-101z" />
    <glyph glyph-name="Eng" unicode="&#x14a;" horiz-adv-x="712" 
d="M60 0v667h140l276 -376v376h176v-642q0 -114 -47 -170.5t-157 -56.5q-38 0 -82 12t-69 30q10 18 30.5 55.5t32.5 58.5q33 -19 59 -19q60 0 60 84v7l-243 330v-356h-176z" />
    <glyph glyph-name="eng" unicode="&#x14b;" horiz-adv-x="573" 
d="M165 -151l63 115q35 -20 60 -20q39 0 54 18.5t15 54.5v239q0 77 -61 77q-78 0 -78 -82v-251h-169v470h163l6 -49q26 31 65 46t71 15q79 0 125.5 -45.5t46.5 -140.5v-247q0 -119 -45.5 -184t-161.5 -65q-94 0 -154 49z" />
    <glyph glyph-name="Omacron" unicode="&#x14c;" horiz-adv-x="762" 
d="M381 -16q-150 0 -248.5 99.5t-98.5 251.5q0 153 98.5 251.5t248.5 98.5q151 0 249 -98.5t98 -251.5q0 -152 -98 -251.5t-249 -99.5zM381 150q76 0 120 53t44 132t-44 132t-120 53t-120 -53t-44 -132t44 -132t120 -53zM221 737v116h319v-116h-319z" />
    <glyph glyph-name="omacron" unicode="&#x14d;" horiz-adv-x="560" 
d="M280 132q42 0 67 29t25 74t-25 74t-67 29t-67 -29t-25 -74t25 -74t67 -29zM29 235q0 106 70.5 178.5t180.5 72.5t180.5 -72.5t70.5 -178.5t-70.5 -178.5t-180.5 -72.5t-180.5 72.5t-70.5 178.5zM137 547v113h286v-113h-286z" />
    <glyph glyph-name="Obreve" unicode="&#x14e;" horiz-adv-x="762" 
d="M381 -16q-150 0 -248.5 99.5t-98.5 251.5q0 153 98.5 251.5t248.5 98.5q151 0 249 -98.5t98 -251.5q0 -152 -98 -251.5t-249 -99.5zM381 150q76 0 120 53t44 132t-44 132t-120 53t-120 -53t-44 -132t44 -132t120 -53zM216 863h118q1 -21 13 -33.5t33 -12.5t33.5 12.5
t12.5 33.5h119q0 -69 -47.5 -109t-117.5 -40t-117 40t-47 109z" />
    <glyph glyph-name="obreve" unicode="&#x14f;" horiz-adv-x="560" 
d="M280 132q42 0 67 29t25 74t-25 74t-67 29t-67 -29t-25 -74t25 -74t67 -29zM29 235q0 106 70.5 178.5t180.5 72.5t180.5 -72.5t70.5 -178.5t-70.5 -178.5t-180.5 -72.5t-180.5 72.5t-70.5 178.5zM122 682h116q2 -46 42 -46t42 46h116q0 -67 -45.5 -104.5t-112.5 -37.5
t-112.5 37.5t-45.5 104.5z" />
    <glyph glyph-name="Ohungarumlaut" unicode="&#x150;" horiz-adv-x="762" 
d="M381 -16q-150 0 -248.5 99.5t-98.5 251.5q0 153 98.5 251.5t248.5 98.5q151 0 249 -98.5t98 -251.5q0 -152 -98 -251.5t-249 -99.5zM381 150q76 0 120 53t44 132t-44 132t-120 53t-120 -53t-44 -132t44 -132t120 -53zM423 717l71 156h162l-117 -156h-116zM220 717l71 156
h162l-117 -156h-116z" />
    <glyph glyph-name="ohungarumlaut" unicode="&#x151;" horiz-adv-x="560" 
d="M280 132q42 0 67 29t25 74t-25 74t-67 29t-67 -29t-25 -74t25 -74t67 -29zM29 235q0 106 70.5 178.5t180.5 72.5t180.5 -72.5t70.5 -178.5t-70.5 -178.5t-180.5 -72.5t-180.5 72.5t-70.5 178.5zM324 540l46 142h143l-82 -142h-107zM143 540l46 142h143l-82 -142h-107z
" />
    <glyph glyph-name="OE" unicode="&#x152;" horiz-adv-x="1060" 
d="M558 0v68q-71 -84 -199 -84q-142 0 -233.5 99.5t-91.5 251.5t95.5 251t236.5 99q68 0 119 -28.5t73 -58.5v69h449v-155h-301v-100h247v-146h-247v-110h322v-156h-470zM381 150q76 0 120 53t44 132t-44 132t-120 53t-120 -53t-44 -132t44 -132t120 -53z" />
    <glyph glyph-name="oe" unicode="&#x153;" horiz-adv-x="869" 
d="M776 144l53 -110q-86 -50 -196 -50q-124 0 -194 62q-62 -62 -159 -62q-110 0 -180.5 72.5t-70.5 178.5t70.5 178.5t180.5 72.5q97 0 161 -64q66 64 170 64q102 0 167 -69.5t65 -199.5v-32h-318q3 -30 29.5 -52.5t87.5 -22.5q77 0 134 34zM526 285h167q0 27 -22 51t-62 24
q-39 0 -61 -24t-22 -51zM280 132q42 0 67 29t25 74t-25 74t-67 29t-67 -29t-25 -74t25 -74t67 -29z" />
    <glyph glyph-name="Racute" unicode="&#x154;" horiz-adv-x="628" 
d="M60 0v667h276q110 0 173.5 -56.5t63.5 -162.5q0 -127 -106 -192l143 -256h-190l-113 227h-74v-227h-173zM233 366h86q35 0 57 21.5t22 57.5q0 38 -21 60t-59 22h-85v-161zM200 717l73 156h179l-124 -156h-128z" />
    <glyph glyph-name="racute" unicode="&#x155;" horiz-adv-x="404" 
d="M49 0v470h163l6 -59q49 67 121 67q36 0 60 -8l-22 -144q-24 6 -49 6q-110 0 -110 -121v-211h-169zM146 540l48 142h159l-90 -142h-117z" />
    <glyph glyph-name="Rcommaaccent" unicode="&#x156;" horiz-adv-x="628" 
d="M60 0v667h276q110 0 173.5 -56.5t63.5 -162.5q0 -127 -106 -192l143 -256h-190l-113 227h-74v-227h-173zM233 366h86q35 0 57 21.5t22 57.5q0 38 -21 60t-59 22h-85v-161zM206 -193l48 142h159l-90 -142h-117z" />
    <glyph glyph-name="rcommaaccent" unicode="&#x157;" horiz-adv-x="404" 
d="M49 0v470h163l6 -59q49 67 121 67q36 0 60 -8l-22 -144q-24 6 -49 6q-110 0 -110 -121v-211h-169zM6 -193l48 142h159l-90 -142h-117z" />
    <glyph glyph-name="Rcaron" unicode="&#x158;" horiz-adv-x="628" 
d="M60 0v667h276q110 0 173.5 -56.5t63.5 -162.5q0 -127 -106 -192l143 -256h-190l-113 227h-74v-227h-173zM233 366h86q35 0 57 21.5t22 57.5q0 38 -21 60t-59 22h-85v-161zM230 717l-116 156h135l45 -68l46 68h134l-116 -156h-128z" />
    <glyph glyph-name="rcaron" unicode="&#x159;" horiz-adv-x="404" 
d="M49 0v470h163l6 -59q49 67 121 67q36 0 60 -8l-22 -144q-24 6 -49 6q-110 0 -110 -121v-211h-169zM157 540l-107 142h133l41 -57l40 57h133l-107 -142h-133z" />
    <glyph glyph-name="Sacute" unicode="&#x15a;" horiz-adv-x="590" 
d="M5 82l107 129q74 -74 172 -74q77 0 77 53q0 25 -24.5 41.5t-79.5 35.5l-37 12q-175 56 -175 189q0 95 68 156t190 61q87 0 149.5 -27t92.5 -59l-90 -114q-79 59 -151 59q-29 0 -51 -13t-22 -38q0 -19 15 -33.5t30.5 -20.5t53.5 -19l32 -10q42 -13 70.5 -26.5t60.5 -37.5
t48.5 -62t16.5 -89q0 -92 -78.5 -151.5t-192.5 -59.5q-179 0 -282 98zM224 717l73 156h179l-124 -156h-128z" />
    <glyph glyph-name="sacute" unicode="&#x15b;" horiz-adv-x="486" 
d="M25 49l72 107q23 -19 63.5 -32.5t70.5 -13.5q63 0 63 34q0 15 -18.5 24t-79.5 28q-142 41 -142 144q0 61 56.5 103.5t145.5 42.5q108 0 192 -55l-57 -105q-69 40 -118 40q-52 0 -52 -28q0 -9 5.5 -16t18 -12t24.5 -8.5t33 -9.5t36 -11q68 -23 93.5 -57.5t25.5 -87.5
q0 -54 -34 -90t-80 -49t-101 -13q-63 0 -122 17t-95 48zM180 540l48 142h159l-90 -142h-117z" />
    <glyph glyph-name="Scircumflex" unicode="&#x15c;" horiz-adv-x="590" 
d="M5 82l107 129q74 -74 172 -74q77 0 77 53q0 25 -24.5 41.5t-79.5 35.5l-37 12q-175 56 -175 189q0 95 68 156t190 61q87 0 149.5 -27t92.5 -59l-90 -114q-79 59 -151 59q-29 0 -51 -13t-22 -38q0 -19 15 -33.5t30.5 -20.5t53.5 -19l32 -10q42 -13 70.5 -26.5t60.5 -37.5
t48.5 -62t16.5 -89q0 -92 -78.5 -151.5t-192.5 -59.5q-179 0 -282 98zM118 717l116 156h128l116 -156h-135l-45 68l-46 -68h-134z" />
    <glyph glyph-name="scircumflex" unicode="&#x15d;" horiz-adv-x="486" 
d="M25 49l72 107q23 -19 63.5 -32.5t70.5 -13.5q63 0 63 34q0 15 -18.5 24t-79.5 28q-142 41 -142 144q0 61 56.5 103.5t145.5 42.5q108 0 192 -55l-57 -105q-69 40 -118 40q-52 0 -52 -28q0 -9 5.5 -16t18 -12t24.5 -8.5t33 -9.5t36 -11q68 -23 93.5 -57.5t25.5 -87.5
q0 -54 -34 -90t-80 -49t-101 -13q-63 0 -122 17t-95 48zM84 540l108 142h132l107 -142h-133l-41 57l-39 -57h-134z" />
    <glyph glyph-name="Scedilla" unicode="&#x15e;" horiz-adv-x="590" 
d="M5 82l107 129q74 -74 172 -74q77 0 77 53q0 25 -24.5 41.5t-79.5 35.5l-37 12q-175 56 -175 189q0 95 68 156t190 61q87 0 149.5 -27t92.5 -59l-90 -114q-79 59 -151 59q-29 0 -51 -13t-22 -38q0 -19 15 -33.5t30.5 -20.5t53.5 -19l32 -10q42 -13 70.5 -26.5t60.5 -37.5
t48.5 -62t16.5 -89q0 -92 -78.5 -151.5t-192.5 -59.5q-179 0 -282 98zM166 -214l15 75q40 -14 71 -14q55 0 55 27q0 24 -51 24q-38 0 -68 -13l14 69q43 12 88 12q50 0 85 -22.5t35 -69.5q0 -52 -41.5 -79t-96.5 -27q-58 0 -106 18z" />
    <glyph glyph-name="scedilla" unicode="&#x15f;" horiz-adv-x="486" 
d="M25 49l72 107q23 -19 63.5 -32.5t70.5 -13.5q63 0 63 34q0 15 -18.5 24t-79.5 28q-142 41 -142 144q0 61 56.5 103.5t145.5 42.5q108 0 192 -55l-57 -105q-69 40 -118 40q-52 0 -52 -28q0 -9 5.5 -16t18 -12t24.5 -8.5t33 -9.5t36 -11q68 -23 93.5 -57.5t25.5 -87.5
q0 -54 -34 -90t-80 -49t-101 -13q-63 0 -122 17t-95 48zM121 -214l15 75q40 -14 71 -14q55 0 55 27q0 24 -51 24q-38 0 -68 -13l14 69q43 12 88 12q50 0 85 -22.5t35 -69.5q0 -52 -41.5 -79t-96.5 -27q-58 0 -106 18z" />
    <glyph glyph-name="Scaron" unicode="&#x160;" horiz-adv-x="590" 
d="M5 82l107 129q74 -74 172 -74q77 0 77 53q0 25 -24.5 41.5t-79.5 35.5l-37 12q-175 56 -175 189q0 95 68 156t190 61q87 0 149.5 -27t92.5 -59l-90 -114q-79 59 -151 59q-29 0 -51 -13t-22 -38q0 -19 15 -33.5t30.5 -20.5t53.5 -19l32 -10q42 -13 70.5 -26.5t60.5 -37.5
t48.5 -62t16.5 -89q0 -92 -78.5 -151.5t-192.5 -59.5q-179 0 -282 98zM238 717l-116 156h135l45 -68l46 68h134l-116 -156h-128z" />
    <glyph glyph-name="scaron" unicode="&#x161;" horiz-adv-x="486" 
d="M25 49l72 107q23 -19 63.5 -32.5t70.5 -13.5q63 0 63 34q0 15 -18.5 24t-79.5 28q-142 41 -142 144q0 61 56.5 103.5t145.5 42.5q108 0 192 -55l-57 -105q-69 40 -118 40q-52 0 -52 -28q0 -9 5.5 -16t18 -12t24.5 -8.5t33 -9.5t36 -11q68 -23 93.5 -57.5t25.5 -87.5
q0 -54 -34 -90t-80 -49t-101 -13q-63 0 -122 17t-95 48zM188 540l-107 142h133l41 -57l40 57h133l-107 -142h-133z" />
    <glyph glyph-name="Tcommaaccent" unicode="&#x162;" horiz-adv-x="627" 
d="M225 0v512h-205v155h587v-155h-203v-512h-179zM175 -209l53 158h172l-99 -158h-126z" />
    <glyph glyph-name="tcommaaccent" unicode="&#x163;" horiz-adv-x="434" 
d="M79 198v142h-69v130h69v131h169v-131h116v-130h-116v-166q0 -58 55 -58q27 0 60 23l66 -104q-69 -53 -151 -53q-108 0 -153.5 56.5t-45.5 159.5zM122 -193l48 142h159l-90 -142h-117z" />
    <glyph glyph-name="Tcaron" unicode="&#x164;" horiz-adv-x="627" 
d="M225 0v512h-205v155h587v-155h-203v-512h-179zM250 717l-116 156h135l45 -68l46 68h134l-116 -156h-128z" />
    <glyph glyph-name="tcaron" unicode="&#x165;" horiz-adv-x="434" 
d="M299 517v150h136l-41 -150h-95zM79 198v142h-69v130h69v131h169v-131h116v-130h-116v-166q0 -58 55 -58q27 0 60 23l66 -104q-69 -53 -151 -53q-108 0 -153.5 56.5t-45.5 159.5z" />
    <glyph glyph-name="Tbar" unicode="&#x166;" horiz-adv-x="628" 
d="M225 0v248h-99v89h99v175h-205v155h588v-155h-204v-175h99v-89h-99v-248h-179z" />
    <glyph glyph-name="tbar" unicode="&#x167;" horiz-adv-x="434" 
d="M10 198v86h69v56h-69v130h69v131h169v-131h116v-130h-116v-56h116v-86h-116v-24q0 -58 56 -58q26 0 59 23l66 -104q-69 -53 -151 -53q-108 0 -153.5 56.5t-45.5 159.5h-69z" />
    <glyph glyph-name="Utilde" unicode="&#x168;" horiz-adv-x="687" 
d="M56 260v407h177v-391q0 -125 110 -125q109 0 109 125v391h179v-407q0 -127 -79.5 -202t-207.5 -75q-129 0 -208.5 74.5t-79.5 202.5zM191 719l-59 90q58 63 130 63q25 0 70 -21.5t70 -21.5q48 0 94 38l58 -90q-58 -63 -130 -63q-26 0 -70 21.5t-69 21.5q-49 0 -94 -38z
" />
    <glyph glyph-name="utilde" unicode="&#x169;" horiz-adv-x="571" 
d="M47 173v297h169v-257q0 -77 66 -77q37 0 54 24t17 58v252h169v-470h-163l-6 48q-26 -31 -65 -46t-71 -15q-78 0 -124 45.5t-46 140.5zM140 537l-57 88q57 62 127 62q25 0 68.5 -21t68.5 -21q44 0 92 37l57 -88q-56 -61 -127 -61q-25 0 -69 20.5t-68 20.5q-44 0 -92 -37z
" />
    <glyph glyph-name="Umacron" unicode="&#x16a;" horiz-adv-x="687" 
d="M56 260v407h177v-391q0 -125 110 -125q109 0 109 125v391h179v-407q0 -127 -79.5 -202t-207.5 -75q-129 0 -208.5 74.5t-79.5 202.5zM183 737v116h319v-116h-319z" />
    <glyph glyph-name="umacron" unicode="&#x16b;" horiz-adv-x="571" 
d="M47 173v297h169v-257q0 -77 66 -77q37 0 54 24t17 58v252h169v-470h-163l-6 48q-26 -31 -65 -46t-71 -15q-78 0 -124 45.5t-46 140.5zM151 547v113h286v-113h-286z" />
    <glyph glyph-name="Ubreve" unicode="&#x16c;" horiz-adv-x="687" 
d="M56 260v407h177v-391q0 -125 110 -125q109 0 109 125v391h179v-407q0 -127 -79.5 -202t-207.5 -75q-129 0 -208.5 74.5t-79.5 202.5zM178 863h118q1 -21 13 -33.5t33 -12.5t33.5 12.5t12.5 33.5h119q0 -69 -47.5 -109t-117.5 -40t-117 40t-47 109z" />
    <glyph glyph-name="ubreve" unicode="&#x16d;" horiz-adv-x="571" 
d="M47 173v297h169v-257q0 -77 66 -77q37 0 54 24t17 58v252h169v-470h-163l-6 48q-26 -31 -65 -46t-71 -15q-78 0 -124 45.5t-46 140.5zM127 682h116q2 -46 42 -46t42 46h116q0 -67 -45.5 -104.5t-112.5 -37.5t-112.5 37.5t-45.5 104.5z" />
    <glyph glyph-name="Uring" unicode="&#x16e;" horiz-adv-x="687" 
d="M56 260v407h177v-391q0 -125 110 -125q109 0 109 125v391h179v-407q0 -127 -79.5 -202t-207.5 -75q-129 0 -208.5 74.5t-79.5 202.5zM205 818q0 57 42 97t100 40t100 -40t42 -98q0 -57 -42 -97t-100 -40t-100 40t-42 98zM347 774q18 0 30 12.5t12 30.5t-12 31t-30 13
t-30 -12.5t-12 -30.5t12 -31t30 -13z" />
    <glyph glyph-name="uring" unicode="&#x16f;" horiz-adv-x="571" 
d="M47 173v297h169v-257q0 -77 66 -77q37 0 54 24t17 58v252h169v-470h-163l-6 48q-26 -31 -65 -46t-71 -15q-78 0 -124 45.5t-46 140.5zM164 646q0 51 36 85t87 34t87 -34t36 -85q0 -50 -36 -84.5t-87 -34.5t-87 34.5t-36 84.5zM287 608q16 0 27 11t11 27t-11 27.5
t-27 11.5t-27 -11t-11 -28q0 -16 11 -27t27 -11z" />
    <glyph glyph-name="Uhungarumlaut" unicode="&#x170;" horiz-adv-x="687" 
d="M56 260v407h177v-391q0 -125 110 -125q109 0 109 125v391h179v-407q0 -127 -79.5 -202t-207.5 -75q-129 0 -208.5 74.5t-79.5 202.5zM378 717l71 156h162l-117 -156h-116zM175 717l71 156h162l-117 -156h-116z" />
    <glyph glyph-name="uhungarumlaut" unicode="&#x171;" horiz-adv-x="571" 
d="M47 173v297h169v-257q0 -77 66 -77q37 0 54 24t17 58v252h169v-470h-163l-6 48q-26 -31 -65 -46t-71 -15q-78 0 -124 45.5t-46 140.5zM318 540l46 142h143l-82 -142h-107zM137 540l46 142h143l-82 -142h-107z" />
    <glyph glyph-name="Uogonek" unicode="&#x172;" horiz-adv-x="687" 
d="M56 260v407h177v-391q0 -125 110 -125q109 0 109 125v391h179v-407q0 -97 -48 -165t-131 -95q-51 -51 -51 -77q0 -23 25 -23q27 0 50 17l33 -86q-53 -35 -118 -35q-45 0 -73.5 21.5t-28.5 64.5q0 49 46 101q-125 2 -202 77t-77 200z" />
    <glyph glyph-name="uogonek" unicode="&#x173;" horiz-adv-x="571" 
d="M422 0h-63l-6 48q-26 -31 -65 -46t-71 -15q-78 0 -124 45.5t-46 140.5v297h169v-257q0 -77 66 -77q37 0 54 24t17 58v252h169v-470q-51 -51 -51 -75q0 -22 25 -22q22 0 49 16l32 -83q-49 -34 -116 -34q-43 0 -71 20.5t-28 62.5q0 51 60 115z" />
    <glyph glyph-name="Wcircumflex" unicode="&#x174;" horiz-adv-x="931" 
d="M172 0l-162 667h187l86 -447l105 431h161l106 -431l85 447h181l-166 -667h-185l-105 422l-105 -422h-188zM285 717l116 156h128l116 -156h-135l-45 68l-46 -68h-134z" />
    <glyph glyph-name="wcircumflex" unicode="&#x175;" horiz-adv-x="790" 
d="M168 0l-163 470h167l74 -276l83 276h131l84 -276l74 276h167l-163 -470h-146l-81 242l-81 -242h-146zM222 540l108 142h132l107 -142h-133l-41 57l-39 -57h-134z" />
    <glyph glyph-name="Ycircumflex" unicode="&#x176;" horiz-adv-x="672" 
d="M247 0v266l-237 401h203l130 -238l122 238h197l-238 -400v-267h-177zM156 717l116 156h128l116 -156h-135l-45 68l-46 -68h-134z" />
    <glyph glyph-name="ycircumflex" unicode="&#x177;" horiz-adv-x="573" 
d="M18 -169l63 115q35 -24 64 -24q25 0 39 9t25 37l14 38l-218 464h192l100 -272l95 272h176l-187 -463q-44 -107 -69 -142q-57 -76 -155 -77q-75 0 -139 43zM113 540l108 142h132l107 -142h-133l-41 57l-39 -57h-134z" />
    <glyph glyph-name="Ydieresis" unicode="&#x178;" horiz-adv-x="672" 
d="M247 0v266l-237 401h203l130 -238l122 238h197l-238 -400v-267h-177zM378 731v128h141v-128h-141zM153 731v128h141v-128h-141z" />
    <glyph glyph-name="Zacute" unicode="&#x179;" horiz-adv-x="613" 
d="M26 0v137l337 375h-320v155h539v-136l-331 -376h338v-155h-563zM243 717l73 156h179l-124 -156h-128z" />
    <glyph glyph-name="zacute" unicode="&#x17a;" horiz-adv-x="508" 
d="M34 0v104l221 232h-208v134h425v-107l-215 -233h218v-130h-441zM214 540l48 142h159l-90 -142h-117z" />
    <glyph glyph-name="Zdotaccent" unicode="&#x17b;" horiz-adv-x="613" 
d="M26 0v137l337 375h-320v155h539v-136l-331 -376h338v-155h-563zM241 727v136h148v-136h-148z" />
    <glyph glyph-name="zdotaccent" unicode="&#x17c;" horiz-adv-x="508" 
d="M34 0v104l221 232h-208v134h425v-107l-215 -233h218v-130h-441zM202 547v128h140v-128h-140z" />
    <glyph glyph-name="Zcaron" unicode="&#x17d;" horiz-adv-x="613" 
d="M26 0v137l337 375h-320v155h539v-136l-331 -376h338v-155h-563zM261 717l-116 156h135l45 -68l46 68h134l-116 -156h-128z" />
    <glyph glyph-name="zcaron" unicode="&#x17e;" horiz-adv-x="508" 
d="M34 0v104l221 232h-208v134h425v-107l-215 -233h218v-130h-441zM206 540l-107 142h133l41 -57l40 57h133l-107 -142h-133z" />
    <glyph glyph-name="longs" unicode="&#x17f;" horiz-adv-x="290" 
d="M49 0v488q0 93 58.5 145t152.5 52q99 0 155 -53l-70 -108q-31 26 -70 26q-26 0 -41.5 -16t-15.5 -43v-491h-169z" />
    <glyph glyph-name="florin" unicode="&#x192;" horiz-adv-x="561" 
d="M-118 -140l80 102q33 -23 66 -23q30 0 48.5 20.5t27.5 76.5l41 223h-59l10 130h72l5 24q26 122 75 178.5t156 56.5q83 0 160 -59l-80 -102q-33 23 -66 23q-30 0 -48.5 -20.5t-27.5 -76.5l-4 -24h101l-10 -130h-114l-40 -229q-20 -119 -72.5 -174t-160.5 -55
q-83 0 -160 59z" />
    <glyph glyph-name="Scommaaccent" unicode="&#x218;" horiz-adv-x="590" 
d="M5 82l107 129q74 -74 172 -74q77 0 77 53q0 25 -24.5 41.5t-79.5 35.5l-37 12q-175 56 -175 189q0 95 68 156t190 61q87 0 149.5 -27t92.5 -59l-90 -114q-79 59 -151 59q-29 0 -51 -13t-22 -38q0 -19 15 -33.5t30.5 -20.5t53.5 -19l32 -10q42 -13 70.5 -26.5t60.5 -37.5
t48.5 -62t16.5 -89q0 -92 -78.5 -151.5t-192.5 -59.5q-179 0 -282 98zM174 -193l48 142h159l-90 -142h-117z" />
    <glyph glyph-name="scommaaccent" unicode="&#x219;" horiz-adv-x="486" 
d="M25 49l72 107q23 -19 63.5 -32.5t70.5 -13.5q63 0 63 34q0 15 -18.5 24t-79.5 28q-142 41 -142 144q0 61 56.5 103.5t145.5 42.5q108 0 192 -55l-57 -105q-69 40 -118 40q-52 0 -52 -28q0 -9 5.5 -16t18 -12t24.5 -8.5t33 -9.5t36 -11q68 -23 93.5 -57.5t25.5 -87.5
q0 -54 -34 -90t-80 -49t-101 -13q-63 0 -122 17t-95 48zM132 -193l48 142h159l-90 -142h-117z" />
    <glyph glyph-name="uni021A" unicode="&#x21a;" horiz-adv-x="627" 
d="M225 0v512h-205v155h587v-155h-203v-512h-179zM176 -209l53 158h172l-99 -158h-126z" />
    <glyph glyph-name="uni021B" unicode="&#x21b;" horiz-adv-x="434" 
d="M79 198v142h-69v130h69v131h169v-131h116v-130h-116v-166q0 -58 55 -58q27 0 60 23l66 -104q-69 -53 -151 -53q-108 0 -153.5 56.5t-45.5 159.5zM114 -193l48 142h159l-90 -142h-117z" />
    <glyph glyph-name="dotlessj" unicode="&#x237;" horiz-adv-x="286" 
d="M-127 -163l63 115q35 -20 60 -20q41 0 55 20.5t14 64.5v453h169v-433q0 -119 -45.5 -184t-161.5 -65q-94 0 -154 49z" />
    <glyph glyph-name="apostrophe" unicode="&#x2bc;" horiz-adv-x="110" 
d="M0 527l7 155h137l-43 -155h-101z" />
    <glyph glyph-name="circumflex" unicode="&#x2c6;" horiz-adv-x="440" 
d="M47 540l108 142h132l107 -142h-133l-41 57l-39 -57h-134z" />
    <glyph glyph-name="caron" unicode="&#x2c7;" horiz-adv-x="440" 
d="M154 540l-107 142h133l41 -57l40 57h133l-107 -142h-133z" />
    <glyph glyph-name="uni02C9" unicode="&#x2c9;" horiz-adv-x="440" 
d="M77 547v113h286v-113h-286z" />
    <glyph glyph-name="breve" unicode="&#x2d8;" horiz-adv-x="440" 
d="M62 682h116q2 -46 42 -46t42 46h116q0 -67 -45.5 -104.5t-112.5 -37.5t-112.5 37.5t-45.5 104.5z" />
    <glyph glyph-name="dotaccent" unicode="&#x2d9;" horiz-adv-x="440" 
d="M150 547v128h140v-128h-140z" />
    <glyph glyph-name="ring" unicode="&#x2da;" horiz-adv-x="440" 
d="M97 646q0 51 36 85t87 34t87 -34t36 -85q0 -50 -36 -84.5t-87 -34.5t-87 34.5t-36 84.5zM220 608q16 0 27 11t11 27t-11 27.5t-27 11.5t-27 -11t-11 -28q0 -16 11 -27t27 -11z" />
    <glyph glyph-name="ogonek" unicode="&#x2db;" horiz-adv-x="440" 
d="M173 0h100q-51 -51 -51 -75q0 -22 25 -22q22 0 49 16l32 -83q-49 -34 -116 -34q-43 0 -71 20.5t-28 62.5q0 51 60 115z" />
    <glyph glyph-name="tilde" unicode="&#x2dc;" horiz-adv-x="440" 
d="M71 537l-57 88q57 62 127 62q25 0 69 -21t68 -21q44 0 92 37l57 -88q-56 -61 -127 -61q-24 0 -68.5 20.5t-68.5 20.5q-44 0 -92 -37z" />
    <glyph glyph-name="hungarumlaut" unicode="&#x2dd;" horiz-adv-x="440" 
d="M216 540l46 142h143l-82 -142h-107zM35 540l46 142h143l-82 -142h-107z" />
    <glyph glyph-name="Omega" unicode="&#x3a9;" horiz-adv-x="780" 
d="M36 0v152h123q-54 37 -83 97t-29 123q0 142 99.5 228.5t243.5 86.5t244 -86.5t100 -228.5q0 -63 -29.5 -123.5t-83.5 -96.5h123v-152h-301v153q51 23 79.5 76.5t28.5 115.5q0 76 -43 125.5t-118 49.5t-117.5 -49.5t-42.5 -125.5q0 -62 27.5 -115.5t79.5 -76.5v-153h-301z
" />
    <glyph glyph-name="pi" unicode="&#x3c0;" horiz-adv-x="716" 
d="M142 0v340h-97v130h625v-130h-97v-159q0 -30 8.5 -41t32.5 -11q15 0 33 6l32 -124q-46 -17 -112 -17q-161 0 -161 177v169h-97v-340h-167z" />
    <glyph glyph-name="Wgrave" unicode="&#x1e80;" horiz-adv-x="931" 
d="M172 0l-162 667h187l86 -447l105 431h161l106 -431l85 447h181l-166 -667h-185l-105 422l-105 -422h-188zM398 717l-124 156h179l73 -156h-128z" />
    <glyph glyph-name="wgrave" unicode="&#x1e81;" horiz-adv-x="790" 
d="M168 0l-163 470h167l74 -276l83 276h131l84 -276l74 276h167l-163 -470h-146l-81 242l-81 -242h-146zM342 540l-90 142h159l48 -142h-117z" />
    <glyph glyph-name="Wacute" unicode="&#x1e82;" horiz-adv-x="931" 
d="M172 0l-162 667h187l86 -447l105 431h161l106 -431l85 447h181l-166 -667h-185l-105 422l-105 -422h-188zM409 717l73 156h179l-124 -156h-128z" />
    <glyph glyph-name="wacute" unicode="&#x1e83;" horiz-adv-x="790" 
d="M168 0l-163 470h167l74 -276l83 276h131l84 -276l74 276h167l-163 -470h-146l-81 242l-81 -242h-146zM335 540l48 142h159l-90 -142h-117z" />
    <glyph glyph-name="Wdieresis" unicode="&#x1e84;" horiz-adv-x="931" 
d="M172 0l-162 667h187l86 -447l105 431h161l106 -431l85 447h181l-166 -667h-185l-105 422l-105 -422h-188zM507 731v128h141v-128h-141zM282 731v128h141v-128h-141z" />
    <glyph glyph-name="wdieresis" unicode="&#x1e85;" horiz-adv-x="790" 
d="M168 0l-163 470h167l74 -276l83 276h131l84 -276l74 276h167l-163 -470h-146l-81 242l-81 -242h-146zM430 551v120h131v-120h-131zM229 551v120h131v-120h-131z" />
    <glyph glyph-name="Ygrave" unicode="&#x1ef2;" horiz-adv-x="672" 
d="M247 0v266l-237 401h203l130 -238l122 238h197l-238 -400v-267h-177zM279 717l-124 156h179l73 -156h-128z" />
    <glyph glyph-name="ygrave" unicode="&#x1ef3;" horiz-adv-x="573" 
d="M18 -169l63 115q35 -24 64 -24q25 0 39 9t25 37l14 38l-218 464h192l100 -272l95 272h176l-187 -463q-44 -107 -69 -142q-57 -76 -155 -77q-75 0 -139 43zM243 540l-90 142h159l48 -142h-117z" />
    <glyph glyph-name="endash" unicode="&#x2013;" horiz-adv-x="500" 
d="M0 199v162h500v-162h-500z" />
    <glyph glyph-name="emdash" unicode="&#x2014;" horiz-adv-x="1000" 
d="M0 199v162h1000v-162h-1000z" />
    <glyph glyph-name="quoteleft" unicode="&#x2018;" horiz-adv-x="295" 
d="M40 419l77 248h125l-26 -248h-176z" />
    <glyph glyph-name="quoteright" unicode="&#x2019;" horiz-adv-x="295" 
d="M52 419l26 248h176l-77 -248h-125z" />
    <glyph glyph-name="quotesinglbase" unicode="&#x201a;" horiz-adv-x="309" 
d="M57 -81l26 248h176l-77 -248h-125z" />
    <glyph glyph-name="quotedblleft" unicode="&#x201c;" horiz-adv-x="518" 
d="M40 419l77 248h125l-26 -248h-176zM263 419l77 248h125l-26 -248h-176z" />
    <glyph glyph-name="quotedblright" unicode="&#x201d;" horiz-adv-x="518" 
d="M52 419l26 248h176l-77 -248h-125zM275 419l26 248h176l-77 -248h-125z" />
    <glyph glyph-name="quotedblbase" unicode="&#x201e;" horiz-adv-x="532" 
d="M57 -81l26 248h176l-77 -248h-125zM281 -81l26 248h176l-77 -248h-125z" />
    <glyph glyph-name="dagger" unicode="&#x2020;" horiz-adv-x="556" 
d="M196 -121v463h-140v146h140v179h164v-179h140v-146h-140v-463h-164z" />
    <glyph glyph-name="daggerdbl" unicode="&#x2021;" horiz-adv-x="556" 
d="M196 -121v179h-140v146h140v138h-140v146h140v179h164v-179h140v-146h-140v-138h140v-146h-140v-179h-164z" />
    <glyph glyph-name="bullet" unicode="&#x2022;" horiz-adv-x="441" 
d="M70 332q0 62 44 106t106 44t106.5 -44t44.5 -106t-44.5 -106t-106.5 -44t-106 44t-44 106z" />
    <glyph glyph-name="ellipsis" unicode="&#x2026;" horiz-adv-x="912" 
d="M55 0v181h182v-181h-182zM365 0v181h182v-181h-182zM675 0v181h182v-181h-182z" />
    <glyph glyph-name="perthousand" unicode="&#x2030;" horiz-adv-x="1297" 
d="M188 0l398 630h143l-394 -630h-147zM209 284q-80 0 -121.5 50t-41.5 132q0 81 41.5 130.5t121.5 49.5t122 -49.5t42 -130.5t-42 -131.5t-122 -50.5zM209 379q45 0 45 87t-45 87t-45 -87t45 -87zM714 -10q-80 0 -121.5 50t-41.5 132q0 81 41.5 130.5t121.5 49.5t122 -49.5
t42 -130.5t-42 -131.5t-122 -50.5zM714 85q45 0 45 87t-45 87t-45 -87t45 -87zM1086 -10q-80 0 -121.5 50t-41.5 132q0 81 41.5 130.5t121.5 49.5t122 -49.5t42 -130.5t-42 -131.5t-122 -50.5zM1086 85q45 0 45 87t-45 87t-45 -87t45 -87z" />
    <glyph glyph-name="guilsinglleft" unicode="&#x2039;" horiz-adv-x="373" 
d="M153 41l-105 201l105 199h168l-104 -199l104 -201h-168z" />
    <glyph glyph-name="guilsinglright" unicode="&#x203a;" horiz-adv-x="373" 
d="M52 41l104 201l-104 199h168l105 -199l-105 -201h-168z" />
    <glyph glyph-name="fraction" unicode="&#x2044;" horiz-adv-x="195" 
d="M-173 0l398 630h143l-394 -630h-147z" />
    <glyph glyph-name="zerosuperior" unicode="&#x2070;" 
d="M178 284q-80 0 -121.5 50t-41.5 132q0 81 41.5 130.5t121.5 49.5t122 -49.5t42 -130.5t-42 -131.5t-122 -50.5zM178 379q45 0 45 87t-45 87t-45 -87t45 -87z" />
    <glyph glyph-name="foursuperior" unicode="&#x2074;" 
d="M21 352v86l149 199h126v-199h36v-86h-36v-58h-110v58h-165zM116 438h70v91z" />
    <glyph glyph-name="fivesuperior" unicode="&#x2075;" 
d="M19 328l55 82q47 -31 89 -31q47 0 47 28q0 14 -15.5 21t-33.5 7q-25 0 -58 -11l-52 41l41 172h214v-89h-135l-8 -37q22 2 34 2q56 0 92.5 -25.5t36.5 -78.5q0 -59 -48 -92t-111 -33q-77 0 -148 44z" />
    <glyph glyph-name="sixsuperior" unicode="&#x2076;" 
d="M314 623l-38 -86q-26 15 -63 15q-53 0 -69 -49q25 14 70 14q57 0 89.5 -31.5t32.5 -77.5q0 -51 -40.5 -87.5t-111.5 -36.5q-66 0 -112 42.5t-46 126.5q0 89 53 141t136 52q45 0 99 -23zM142 422q2 -48 43 -48q17 0 29 8t12 23q0 29 -38 29q-20 0 -46 -12z" />
    <glyph glyph-name="sevensuperior" unicode="&#x2077;" 
d="M190 294h-128q48 128 127 251h-150v92h278v-84q-83 -129 -127 -259z" />
    <glyph glyph-name="eightsuperior" unicode="&#x2078;" 
d="M72 475q-37 26 -37 71q0 51 44.5 75.5t98.5 24.5t98.5 -24.5t44.5 -75.5q0 -45 -37 -71q52 -30 52 -81q0 -30 -15 -52.5t-39.5 -34.5t-50.5 -17.5t-53 -5.5q-37 0 -70.5 9.5t-60.5 35.5t-27 65q0 48 52 81zM176 506q39 12 39 33q0 13 -11.5 19.5t-25.5 6.5t-25.5 -6.5
t-11.5 -19.5q0 -21 35 -33zM179 439q-43 -16 -43 -42q0 -14 12.5 -21.5t29.5 -7.5t29.5 7.5t12.5 21.5q0 27 -41 42z" />
    <glyph glyph-name="ninesuperior" unicode="&#x2079;" 
d="M40 308l37 87q28 -15 67 -15q34 0 49.5 12.5t21.5 38.5q-18 -16 -64 -16q-62 0 -96 31.5t-34 77.5q0 51 40.5 86.5t111.5 35.5q67 0 112.5 -41t45.5 -125q0 -92 -49 -144t-141 -52q-53 0 -101 24zM217 508q-5 49 -44 49q-40 0 -40 -31q0 -28 38 -28q25 0 46 10z" />
    <glyph glyph-name="zeroinferior" unicode="&#x2080;" 
d="M178 -9q-80 0 -121.5 50t-41.5 132q0 81 41.5 130.5t121.5 49.5t122 -49.5t42 -130.5t-42 -131.5t-122 -50.5zM178 86q45 0 45 87t-45 87t-45 -87t45 -87z" />
    <glyph glyph-name="oneinferior" unicode="&#x2081;" 
d="M158 1v230q-6 -3 -30 -15.5t-37 -17.5l-43 86l122 60h107v-343h-119z" />
    <glyph glyph-name="twoinferior" unicode="&#x2082;" 
d="M39 1v62q0 25 17.5 49t35 37.5t47.5 32.5q59 36 59 56q0 22 -31 22q-33 0 -80 -29l-55 74q72 48 142 48q62 0 102.5 -27.5t40.5 -78.5q0 -31 -15.5 -56.5t-31.5 -37.5t-48 -31q-22 -13 -42 -27h139v-94h-280z" />
    <glyph glyph-name="threeinferior" unicode="&#x2083;" 
d="M14 35l55 82q46 -31 92 -31q43 0 43 29q0 30 -44 30q-24 0 -51 -7l-25 51l98 63h-129v92h254v-76l-72 -57q85 -13 85 -101q0 -58 -46.5 -88.5t-111.5 -30.5q-74 0 -148 44z" />
    <glyph glyph-name="fourinferior" unicode="&#x2084;" 
d="M21 59v86l149 199h126v-199h36v-86h-36v-58h-110v58h-165zM116 145h70v91z" />
    <glyph glyph-name="fiveinferior" unicode="&#x2085;" 
d="M19 35l55 82q47 -31 89 -31q47 0 47 28q0 14 -15.5 21t-33.5 7q-25 0 -58 -11l-52 41l41 172h214v-89h-135l-8 -37q22 2 34 2q56 0 92.5 -25.5t36.5 -78.5q0 -59 -48 -92t-111 -33q-77 0 -148 44z" />
    <glyph glyph-name="sixinferior" unicode="&#x2086;" 
d="M314 330l-38 -86q-26 15 -63 15q-53 0 -69 -49q25 14 70 14q57 0 89.5 -31.5t32.5 -77.5q0 -51 -40.5 -87.5t-111.5 -36.5q-66 0 -112 42.5t-46 126.5q0 89 53 141t136 52q45 0 99 -23zM142 129q2 -48 43 -48q17 0 29 8t12 23q0 29 -38 29q-20 0 -46 -12z" />
    <glyph glyph-name="seveninferior" unicode="&#x2087;" 
d="M190 1h-128q48 128 127 251h-150v92h278v-84q-83 -129 -127 -259z" />
    <glyph glyph-name="eightinferior" unicode="&#x2088;" 
d="M72 182q-37 26 -37 71q0 51 44.5 75.5t98.5 24.5t98.5 -24.5t44.5 -75.5q0 -45 -37 -71q52 -30 52 -81q0 -30 -15 -52.5t-39.5 -34.5t-50.5 -17.5t-53 -5.5q-37 0 -70.5 9.5t-60.5 35.5t-27 65q0 48 52 81zM176 213q39 12 39 33q0 13 -11.5 19.5t-25.5 6.5t-25.5 -6.5
t-11.5 -19.5q0 -21 35 -33zM179 146q-43 -16 -43 -42q0 -14 12.5 -21.5t29.5 -7.5t29.5 7.5t12.5 21.5q0 27 -41 42z" />
    <glyph glyph-name="nineinferior" unicode="&#x2089;" 
d="M40 15l37 87q28 -15 67 -15q34 0 49.5 12.5t21.5 38.5q-18 -16 -64 -16q-62 0 -96 31.5t-34 77.5q0 51 40.5 86.5t111.5 35.5q67 0 112.5 -41t45.5 -125q0 -92 -49 -144t-141 -52q-53 0 -101 24zM217 215q-5 49 -44 49q-40 0 -40 -31q0 -28 38 -28q25 0 46 10z" />
    <glyph glyph-name="Euro" unicode="&#x20ac;" horiz-adv-x="561" 
d="M0 198l33 87h58q-1 11 -1 31v24h-77l32 87h58q26 100 93 160.5t175 60.5q121 0 189 -79l-88 -112q-40 42 -91 42q-70 0 -100 -72h147l-32 -87h-133q-1 -9 -1 -25q0 -19 1 -30h153l-33 -87h-99q29 -66 97 -66q56 0 94 40l85 -110q-68 -79 -189 -79q-107 0 -173.5 59
t-92.5 156h-105z" />
    <glyph glyph-name="afii61289" unicode="&#x2113;" horiz-adv-x="466" 
d="M128 225v212q0 137 36 195t108 58q52 0 84.5 -38t32.5 -106q0 -165 -184 -336v-20q0 -75 20.5 -103t58.5 -28q31 0 61 16t46 40l19 -20l21 -18q-58 -86 -156 -86q-146 0 -146 167l-49 -35q-5 11 -25 44q30 20 73 58zM205 490v-201q117 130 117 256q0 87 -54 87
q-28 0 -45.5 -35t-17.5 -107z" />
    <glyph glyph-name="trademark" unicode="&#x2122;" horiz-adv-x="896" 
d="M415 284l18 383h109l92 -158l93 158h109l18 -383h-114l-10 201l-62 -112h-66l-67 112l-7 -201h-113zM148 284v281h-120v102h362v-102h-120v-281h-122z" />
    <glyph glyph-name="uni2126" unicode="&#x2126;" horiz-adv-x="780" 
d="M36 0v152h123q-54 37 -83 97t-29 123q0 142 99.5 228.5t243.5 86.5t244 -86.5t100 -228.5q0 -63 -29.5 -123.5t-83.5 -96.5h123v-152h-301v153q51 23 79.5 76.5t28.5 115.5q0 76 -43 125.5t-118 49.5t-117.5 -49.5t-42.5 -125.5q0 -62 27.5 -115.5t79.5 -76.5v-153h-301z
" />
    <glyph glyph-name="estimated" unicode="&#x212e;" horiz-adv-x="887" 
d="M192 335v-197q0 -13 9 -22q101 -107 245 -107q153 0 259 119h57q-52 -64 -137 -101.5t-180 -37.5q-166 0 -283 105.5t-117 254.5t117 255t283 106t284 -106t118 -255v-10h-650q-5 0 -5 -4zM197 358h498q4 0 4 7v197q0 14 -9 24q-102 102 -244 102q-140 0 -244 -106
q-10 -7 -10 -24v-193q0 -7 5 -7z" />
    <glyph glyph-name="onethird" unicode="&#x2153;" horiz-adv-x="925" 
d="M148 294v230q-6 -3 -30 -15.5t-37 -17.5l-43 86l122 60h107v-343h-119zM160 0l398 630h143l-394 -630h-147zM546 35l55 82q46 -31 92 -31q43 0 43 29q0 30 -44 30q-24 0 -51 -7l-25 51l98 63h-129v92h254v-76l-72 -57q85 -13 85 -101q0 -58 -46.5 -88.5t-111.5 -30.5
q-74 0 -148 44z" />
    <glyph glyph-name="twothirds" unicode="&#x2154;" horiz-adv-x="925" 
d="M56 294v62q0 25 17.5 49t35 37.5t47.5 32.5q59 36 59 56q0 22 -31 22q-33 0 -80 -29l-55 74q72 48 142 48q62 0 102.5 -27.5t40.5 -78.5q0 -31 -15.5 -56.5t-31.5 -37.5t-48 -31q-22 -13 -42 -27h139v-94h-280zM205 0l398 630h143l-394 -630h-147zM579 35l55 82
q46 -31 92 -31q43 0 43 29q0 30 -44 30q-24 0 -51 -7l-25 51l98 63h-129v92h254v-76l-72 -57q85 -13 85 -101q0 -58 -46.5 -88.5t-111.5 -30.5q-74 0 -148 44z" />
    <glyph glyph-name="onefifth" unicode="&#x2155;" horiz-adv-x="925" 
d="M148 294v230q-6 -3 -30 -15.5t-37 -17.5l-43 86l122 60h107v-343h-119zM166 0l398 630h143l-394 -630h-147zM543 35l55 82q47 -31 89 -31q47 0 47 28q0 14 -15.5 21t-33.5 7q-25 0 -58 -11l-52 41l41 172h214v-89h-135l-8 -37q22 2 34 2q56 0 92.5 -25.5t36.5 -78.5
q0 -59 -48 -92t-111 -33q-77 0 -148 44z" />
    <glyph glyph-name="twofifths" unicode="&#x2156;" horiz-adv-x="925" 
d="M63 294v62q0 25 17.5 49t35 37.5t47.5 32.5q59 36 59 56q0 22 -31 22q-33 0 -80 -29l-55 74q72 48 142 48q62 0 102.5 -27.5t40.5 -78.5q0 -31 -15.5 -56.5t-31.5 -37.5t-48 -31q-22 -13 -42 -27h139v-94h-280zM211 0l398 630h143l-394 -630h-147zM568 35l55 82
q47 -31 89 -31q47 0 47 28q0 14 -15.5 21t-33.5 7q-25 0 -58 -11l-52 41l41 172h214v-89h-135l-8 -37q22 2 34 2q56 0 92.5 -25.5t36.5 -78.5q0 -59 -48 -92t-111 -33q-77 0 -148 44z" />
    <glyph glyph-name="threefifths" unicode="&#x2157;" horiz-adv-x="925" 
d="M56 328l55 82q46 -31 92 -31q43 0 43 29q0 30 -44 30q-24 0 -51 -7l-25 51l98 63h-129v92h254v-76l-72 -57q85 -13 85 -101q0 -58 -46.5 -88.5t-111.5 -30.5q-74 0 -148 44zM199 0l398 630h143l-394 -630h-147zM556 35l55 82q47 -31 89 -31q47 0 47 28q0 14 -15.5 21
t-33.5 7q-25 0 -58 -11l-52 41l41 172h214v-89h-135l-8 -37q22 2 34 2q56 0 92.5 -25.5t36.5 -78.5q0 -59 -48 -92t-111 -33q-77 0 -148 44z" />
    <glyph glyph-name="fourfifths" unicode="&#x2158;" horiz-adv-x="925" 
d="M39 352v86l149 199h126v-199h36v-86h-36v-58h-110v58h-165zM134 438h70v91zM207 0l398 630h143l-394 -630h-147zM568 35l55 82q47 -31 89 -31q47 0 47 28q0 14 -15.5 21t-33.5 7q-25 0 -58 -11l-52 41l41 172h214v-89h-135l-8 -37q22 2 34 2q56 0 92.5 -25.5t36.5 -78.5
q0 -59 -48 -92t-111 -33q-77 0 -148 44z" />
    <glyph glyph-name="onesixth" unicode="&#x2159;" horiz-adv-x="925" 
d="M152 294v230q-6 -3 -30 -15.5t-37 -17.5l-43 86l122 60h107v-343h-119zM172 0l398 630h143l-394 -630h-147zM840 330l-38 -86q-26 15 -63 15q-53 0 -69 -49q25 14 70 14q57 0 89.5 -31.5t32.5 -77.5q0 -51 -40.5 -87.5t-111.5 -36.5q-66 0 -112 42.5t-46 126.5
q0 89 53 141t136 52q45 0 99 -23zM668 129q2 -48 43 -48q17 0 29 8t12 23q0 29 -38 29q-20 0 -46 -12z" />
    <glyph glyph-name="fivesixths" unicode="&#x215a;" horiz-adv-x="925" 
d="M53 328l55 82q47 -31 89 -31q47 0 47 28q0 14 -15.5 21t-33.5 7q-25 0 -58 -11l-52 41l41 172h214v-89h-135l-8 -37q22 2 34 2q56 0 92.5 -25.5t36.5 -78.5q0 -59 -48 -92t-111 -33q-77 0 -148 44zM198 0l398 630h143l-394 -630h-147zM848 330l-38 -86q-26 15 -63 15
q-53 0 -69 -49q25 14 70 14q57 0 89.5 -31.5t32.5 -77.5q0 -51 -40.5 -87.5t-111.5 -36.5q-66 0 -112 42.5t-46 126.5q0 89 53 141t136 52q45 0 99 -23zM676 129q2 -48 43 -48q17 0 29 8t12 23q0 29 -38 29q-20 0 -46 -12z" />
    <glyph glyph-name="oneeighth" unicode="&#x215b;" horiz-adv-x="925" 
d="M145 294v230q-6 -3 -30 -15.5t-37 -17.5l-43 86l122 60h107v-343h-119zM158 0l398 630h143l-394 -630h-147zM598 182q-37 26 -37 71q0 51 44.5 75.5t98.5 24.5t98.5 -24.5t44.5 -75.5q0 -45 -37 -71q52 -30 52 -81q0 -30 -15 -52.5t-39.5 -34.5t-50.5 -17.5t-53 -5.5
q-37 0 -70.5 9.5t-60.5 35.5t-27 65q0 48 52 81zM702 213q39 12 39 33q0 13 -11.5 19.5t-25.5 6.5t-25.5 -6.5t-11.5 -19.5q0 -21 35 -33zM705 146q-43 -16 -43 -42q0 -14 12.5 -21.5t29.5 -7.5t29.5 7.5t12.5 21.5q0 27 -41 42z" />
    <glyph glyph-name="threeeighths" unicode="&#x215c;" horiz-adv-x="925" 
d="M40 328l55 82q46 -31 92 -31q43 0 43 29q0 30 -44 30q-24 0 -51 -7l-25 51l98 63h-129v92h254v-76l-72 -57q85 -13 85 -101q0 -58 -46.5 -88.5t-111.5 -30.5q-74 0 -148 44zM189 0l398 630h143l-394 -630h-147zM626 182q-37 26 -37 71q0 51 44.5 75.5t98.5 24.5
t98.5 -24.5t44.5 -75.5q0 -45 -37 -71q52 -30 52 -81q0 -30 -15 -52.5t-39.5 -34.5t-50.5 -17.5t-53 -5.5q-37 0 -70.5 9.5t-60.5 35.5t-27 65q0 48 52 81zM730 213q39 12 39 33q0 13 -11.5 19.5t-25.5 6.5t-25.5 -6.5t-11.5 -19.5q0 -21 35 -33zM733 146q-43 -16 -43 -42
q0 -14 12.5 -21.5t29.5 -7.5t29.5 7.5t12.5 21.5q0 27 -41 42z" />
    <glyph glyph-name="fiveeighths" unicode="&#x215d;" horiz-adv-x="925" 
d="M46 328l55 82q47 -31 89 -31q47 0 47 28q0 14 -15.5 21t-33.5 7q-25 0 -58 -11l-52 41l41 172h214v-89h-135l-8 -37q22 2 34 2q56 0 92.5 -25.5t36.5 -78.5q0 -59 -48 -92t-111 -33q-77 0 -148 44zM194 0l398 630h143l-394 -630h-147zM624 182q-37 26 -37 71
q0 51 44.5 75.5t98.5 24.5t98.5 -24.5t44.5 -75.5q0 -45 -37 -71q52 -30 52 -81q0 -30 -15 -52.5t-39.5 -34.5t-50.5 -17.5t-53 -5.5q-37 0 -70.5 9.5t-60.5 35.5t-27 65q0 48 52 81zM728 213q39 12 39 33q0 13 -11.5 19.5t-25.5 6.5t-25.5 -6.5t-11.5 -19.5q0 -21 35 -33z
M731 146q-43 -16 -43 -42q0 -14 12.5 -21.5t29.5 -7.5t29.5 7.5t12.5 21.5q0 27 -41 42z" />
    <glyph glyph-name="seveneighths" unicode="&#x215e;" horiz-adv-x="925" 
d="M225 294h-128q48 128 127 251h-150v92h278v-84q-83 -129 -127 -259zM160 0l398 630h143l-394 -630h-147zM602 182q-37 26 -37 71q0 51 44.5 75.5t98.5 24.5t98.5 -24.5t44.5 -75.5q0 -45 -37 -71q52 -30 52 -81q0 -30 -15 -52.5t-39.5 -34.5t-50.5 -17.5t-53 -5.5
q-37 0 -70.5 9.5t-60.5 35.5t-27 65q0 48 52 81zM706 213q39 12 39 33q0 13 -11.5 19.5t-25.5 6.5t-25.5 -6.5t-11.5 -19.5q0 -21 35 -33zM709 146q-43 -16 -43 -42q0 -14 12.5 -21.5t29.5 -7.5t29.5 7.5t12.5 21.5q0 27 -41 42z" />
    <glyph glyph-name="partialdiff" unicode="&#x2202;" horiz-adv-x="556" 
d="M148 481l-60 120q81 47 180 47q125 0 190.5 -83.5t65.5 -219.5q0 -100 -33 -181t-102 -131t-164 -50q-91 0 -150 53.5t-59 143.5q0 99 67.5 169.5t166.5 70.5q64 0 109 -26q-2 51 -32.5 81t-81.5 30q-47 0 -97 -24zM350 269q-34 23 -82 23q-42 0 -68 -25.5t-26 -67.5
q0 -31 17.5 -49.5t49.5 -18.5q85 0 109 138z" />
    <glyph glyph-name="Delta" unicode="&#x2206;" horiz-adv-x="748" 
d="M30 0v138l257 529h174l257 -529v-138h-688zM217 155h312l-158 338z" />
    <glyph glyph-name="product" unicode="&#x220f;" horiz-adv-x="765" 
d="M122 -124v634h-107v160h735v-160h-106v-634h-177v634h-168v-634h-177z" />
    <glyph glyph-name="summation" unicode="&#x2211;" horiz-adv-x="594" 
d="M36 -124v149l173 255q-22 31 -81.5 113.5t-91.5 127.5v149h523v-155h-315q33 -47 98 -135.5t74 -100.5l-172 -247h315v-156h-523z" />
    <glyph glyph-name="minus" unicode="&#x2212;" horiz-adv-x="561" 
d="M81 250v132h399v-132h-399z" />
    <glyph glyph-name="uni2215" unicode="&#x2215;" horiz-adv-x="195" 
d="M-173 0l398 630h143l-394 -630h-147z" />
    <glyph glyph-name="uni2219" unicode="&#x2219;" horiz-adv-x="258" 
d="M55 292v136h148v-136h-148z" />
    <glyph glyph-name="radical" unicode="&#x221a;" horiz-adv-x="643" 
d="M284 0l-129 253h-89v163h191l87 -177l167 493h175l-252 -732h-150z" />
    <glyph glyph-name="infinity" unicode="&#x221e;" horiz-adv-x="716" 
d="M358 189q-21 -31 -60 -51.5t-82 -20.5q-85 0 -135.5 52t-50.5 145t50.5 145t135.5 52q43 0 82 -20.5t61 -51.5q21 31 60 51.5t83 20.5q82 0 133 -52.5t51 -144.5t-51 -144.5t-135 -52.5q-43 0 -81.5 20.5t-60.5 51.5zM410 314q9 -37 34.5 -60t51.5 -23q32 0 51.5 24.5
t19.5 58.5t-19.5 58.5t-51.5 24.5q-25 0 -50.5 -23t-35.5 -60zM306 314q-10 37 -35.5 60t-50.5 23q-32 0 -51.5 -24.5t-19.5 -58.5t19.5 -58.5t51.5 -24.5q26 0 51.5 23t34.5 60z" />
    <glyph glyph-name="integral" unicode="&#x222b;" horiz-adv-x="565" 
d="M-6 -63l80 102q39 -27 65 -27t41 17t15 41v418q0 83 52.5 140t157.5 57q99 0 160 -59l-80 -102q-39 27 -65 27t-41 -17t-15 -41v-418q0 -83 -52.5 -140t-157.5 -57q-99 0 -160 59z" />
    <glyph glyph-name="approxequal" unicode="&#x2248;" horiz-adv-x="561" 
d="M99 337l-60 103q66 68 143 68q29 0 77 -22t76 -22q53 0 104 37l62 -104q-26 -28 -67 -48.5t-74 -20.5q-31 0 -84 24.5t-76 24.5q-48 0 -101 -40zM119 145l-62 103q66 70 140 70q30 0 81 -22.5t80 -22.5q52 0 101 36l63 -105q-28 -28 -68.5 -48t-76.5 -20q-29 0 -77.5 25
t-76.5 25q-49 0 -104 -41z" />
    <glyph glyph-name="notequal" unicode="&#x2260;" horiz-adv-x="561" 
d="M81 341v132h232l55 102l87 -44l-31 -58h56v-132h-127l-35 -66h162v-132h-233l-55 -104l-87 44l32 60h-56v132h126l36 66h-162z" />
    <glyph glyph-name="lessequal" unicode="&#x2264;" horiz-adv-x="561" 
d="M81 0v132h399v-132h-399zM70 336v97l353 187l60 -119l-229 -114l237 -114l-68 -124z" />
    <glyph glyph-name="greaterequal" unicode="&#x2265;" horiz-adv-x="561" 
d="M81 0v132h399v-132h-399zM138 149l-68 124l237 114l-229 114l60 119l353 -187v-97z" />
    <glyph glyph-name="lozenge" unicode="&#x25ca;" horiz-adv-x="590" 
d="M365 0h-140l-198 336l198 335h140l198 -335zM294 162l97 174l-97 173l-95 -173z" />
    <glyph glyph-name="oneseventh" unicode="&#xf506;" horiz-adv-x="925" 
d="M154 294v230q-6 -3 -30 -15.5t-37 -17.5l-43 86l122 60h107v-343h-119zM159 0l398 630h143l-394 -630h-147zM720 1h-128q48 128 127 251h-150v92h278v-84q-83 -129 -127 -259z" />
    <glyph glyph-name="twosevenths" unicode="&#xf507;" horiz-adv-x="925" 
d="M58 294v62q0 25 17.5 49t35 37.5t47.5 32.5q59 36 59 56q0 22 -31 22q-33 0 -80 -29l-55 74q72 48 142 48q62 0 102.5 -27.5t40.5 -78.5q0 -31 -15.5 -56.5t-31.5 -37.5t-48 -31q-22 -13 -42 -27h139v-94h-280zM196 0l398 630h143l-394 -630h-147zM744 1h-128
q48 128 127 251h-150v92h278v-84q-83 -129 -127 -259z" />
    <glyph glyph-name="threesevenths" unicode="&#xf508;" horiz-adv-x="925" 
d="M49 328l55 82q46 -31 92 -31q43 0 43 29q0 30 -44 30q-24 0 -51 -7l-25 51l98 63h-129v92h254v-76l-72 -57q85 -13 85 -101q0 -58 -46.5 -88.5t-111.5 -30.5q-74 0 -148 44zM192 0l398 630h143l-394 -630h-147zM750 1h-128q48 128 127 251h-150v92h278v-84
q-83 -129 -127 -259z" />
    <glyph glyph-name="foursevenths" unicode="&#xf509;" horiz-adv-x="925" 
d="M50 352v86l149 199h126v-199h36v-86h-36v-58h-110v58h-165zM145 438h70v91zM196 0l398 630h143l-394 -630h-147zM744 1h-128q48 128 127 251h-150v92h278v-84q-83 -129 -127 -259z" />
    <glyph glyph-name="fivesevenths" unicode="&#xf50a;" horiz-adv-x="925" 
d="M53 328l55 82q47 -31 89 -31q47 0 47 28q0 14 -15.5 21t-33.5 7q-25 0 -58 -11l-52 41l41 172h214v-89h-135l-8 -37q22 2 34 2q56 0 92.5 -25.5t36.5 -78.5q0 -59 -48 -92t-111 -33q-77 0 -148 44zM189 0l398 630h143l-394 -630h-147zM747 1h-128q48 128 127 251h-150v92
h278v-84q-83 -129 -127 -259z" />
    <glyph glyph-name="sixsevenths" unicode="&#xf50b;" horiz-adv-x="925" 
d="M337 623l-38 -86q-26 15 -63 15q-53 0 -69 -49q25 14 70 14q57 0 89.5 -31.5t32.5 -77.5q0 -51 -40.5 -87.5t-111.5 -36.5q-66 0 -112 42.5t-46 126.5q0 89 53 141t136 52q45 0 99 -23zM165 422q2 -48 43 -48q17 0 29 8t12 23q0 29 -38 29q-20 0 -46 -12zM185 0l398 630
h143l-394 -630h-147zM738 1h-128q48 128 127 251h-150v92h278v-84q-83 -129 -127 -259z" />
    <glyph glyph-name="oneninth" unicode="&#xf50c;" horiz-adv-x="925" 
d="M149 294v230q-6 -3 -30 -15.5t-37 -17.5l-43 86l122 60h107v-343h-119zM157 0l398 630h143l-394 -630h-147zM565 15l37 87q28 -15 67 -15q34 0 49.5 12.5t21.5 38.5q-18 -16 -64 -16q-62 0 -96 31.5t-34 77.5q0 51 40.5 86.5t111.5 35.5q67 0 112.5 -41t45.5 -125
q0 -92 -49 -144t-141 -52q-53 0 -101 24zM742 215q-5 49 -44 49q-40 0 -40 -31q0 -28 38 -28q25 0 46 10z" />
    <glyph glyph-name="twoninths" unicode="&#xf50d;" horiz-adv-x="925" 
d="M57 294v62q0 25 17.5 49t35 37.5t47.5 32.5q59 36 59 56q0 22 -31 22q-33 0 -80 -29l-55 74q72 48 142 48q62 0 102.5 -27.5t40.5 -78.5q0 -31 -15.5 -56.5t-31.5 -37.5t-48 -31q-22 -13 -42 -27h139v-94h-280zM198 0l398 630h143l-394 -630h-147zM593 15l37 87
q28 -15 67 -15q34 0 49.5 12.5t21.5 38.5q-18 -16 -64 -16q-62 0 -96 31.5t-34 77.5q0 51 40.5 86.5t111.5 35.5q67 0 112.5 -41t45.5 -125q0 -92 -49 -144t-141 -52q-53 0 -101 24zM770 215q-5 49 -44 49q-40 0 -40 -31q0 -28 38 -28q25 0 46 10z" />
    <glyph glyph-name="fourninths" unicode="&#xf50e;" horiz-adv-x="925" 
d="M45 352v86l149 199h126v-199h36v-86h-36v-58h-110v58h-165zM140 438h70v91zM201 0l398 630h143l-394 -630h-147zM589 15l37 87q28 -15 67 -15q34 0 49.5 12.5t21.5 38.5q-18 -16 -64 -16q-62 0 -96 31.5t-34 77.5q0 51 40.5 86.5t111.5 35.5q67 0 112.5 -41t45.5 -125
q0 -92 -49 -144t-141 -52q-53 0 -101 24zM766 215q-5 49 -44 49q-40 0 -40 -31q0 -28 38 -28q25 0 46 10z" />
    <glyph glyph-name="fiveninths" unicode="&#xf50f;" horiz-adv-x="925" 
d="M55 328l55 82q47 -31 89 -31q47 0 47 28q0 14 -15.5 21t-33.5 7q-25 0 -58 -11l-52 41l41 172h214v-89h-135l-8 -37q22 2 34 2q56 0 92.5 -25.5t36.5 -78.5q0 -59 -48 -92t-111 -33q-77 0 -148 44zM194 0l398 630h143l-394 -630h-147zM591 15l37 87q28 -15 67 -15
q34 0 49.5 12.5t21.5 38.5q-18 -16 -64 -16q-62 0 -96 31.5t-34 77.5q0 51 40.5 86.5t111.5 35.5q67 0 112.5 -41t45.5 -125q0 -92 -49 -144t-141 -52q-53 0 -101 24zM768 215q-5 49 -44 49q-40 0 -40 -31q0 -28 38 -28q25 0 46 10z" />
    <glyph glyph-name="sevenninths" unicode="&#xf510;" horiz-adv-x="925" 
d="M228 294h-128q48 128 127 251h-150v92h278v-84q-83 -129 -127 -259zM151 0l398 630h143l-394 -630h-147zM563 15l37 87q28 -15 67 -15q34 0 49.5 12.5t21.5 38.5q-18 -16 -64 -16q-62 0 -96 31.5t-34 77.5q0 51 40.5 86.5t111.5 35.5q67 0 112.5 -41t45.5 -125
q0 -92 -49 -144t-141 -52q-53 0 -101 24zM740 215q-5 49 -44 49q-40 0 -40 -31q0 -28 38 -28q25 0 46 10z" />
    <glyph glyph-name="eightninths" unicode="&#xf511;" horiz-adv-x="925" 
d="M99 475q-37 26 -37 71q0 51 44.5 75.5t98.5 24.5t98.5 -24.5t44.5 -75.5q0 -45 -37 -71q52 -30 52 -81q0 -30 -15 -52.5t-39.5 -34.5t-50.5 -17.5t-53 -5.5q-37 0 -70.5 9.5t-60.5 35.5t-27 65q0 48 52 81zM203 506q39 12 39 33q0 13 -11.5 19.5t-25.5 6.5t-25.5 -6.5
t-11.5 -19.5q0 -21 35 -33zM206 439q-43 -16 -43 -42q0 -14 12.5 -21.5t29.5 -7.5t29.5 7.5t12.5 21.5q0 27 -41 42zM194 0l398 630h143l-394 -630h-147zM588 15l37 87q28 -15 67 -15q34 0 49.5 12.5t21.5 38.5q-18 -16 -64 -16q-62 0 -96 31.5t-34 77.5q0 51 40.5 86.5
t111.5 35.5q67 0 112.5 -41t45.5 -125q0 -92 -49 -144t-141 -52q-53 0 -101 24zM765 215q-5 49 -44 49q-40 0 -40 -31q0 -28 38 -28q25 0 46 10z" />
    <glyph glyph-name="commaaccent" unicode="&#xf6c3;" horiz-adv-x="440" 
d="M116 -193l48 142h159l-90 -142h-117z" />
    <glyph glyph-name="zero.alt" unicode="&#xf800;" horiz-adv-x="561" 
d="M281 -16q-121 0 -186 90t-65 242t65 242t186 90q127 0 188.5 -88.5t61.5 -243.5t-61.5 -243.5t-188.5 -88.5zM281 138q79 0 79 178t-79 178t-79 -178t79 -178z" />
    <glyph glyph-name="one.alt" unicode="&#xf801;" horiz-adv-x="561" 
d="M101 0v144h110v302l-89 -48l-72 128l189 104h135v-486h102v-144h-375z" />
    <glyph glyph-name="two.alt" unicode="&#xf802;" horiz-adv-x="561" 
d="M44 0v92q0 54 29 102t70.5 81.5t83 62.5t70.5 56.5t29 52.5q0 23 -19 39.5t-54 16.5q-59 0 -103 -66l-122 84q33 56 95 91.5t152 35.5q100 0 159.5 -56t59.5 -131q0 -48 -25.5 -90.5t-62 -72.5t-73 -55.5t-63 -49t-27.5 -43.5h253v-150h-452z" />
    <glyph glyph-name="three.alt" unicode="&#xf803;" horiz-adv-x="561" 
d="M8 67l88 122q69 -59 136 -59q40 0 67.5 21t27.5 61q0 30 -23 54t-63 24q-44 0 -67 -13l-38 62l160 148h-233v143h415v-116l-122 -132q67 -17 104 -66t37 -123q0 -95 -76 -152t-175 -57q-144 0 -238 83z" />
    <glyph glyph-name="four.alt" unicode="&#xf804;" horiz-adv-x="561" 
d="M27 110v122l269 398h167v-385h63v-135h-63v-110h-155v110h-281zM180 245h128v188z" />
    <glyph glyph-name="five.alt" unicode="&#xf805;" horiz-adv-x="561" 
d="M16 73l88 114q62 -57 125 -57q46 0 71 24.5t25 57.5q0 34 -25.5 59.5t-69.5 25.5q-52 0 -89 -20l-72 53l47 300h353v-143h-241l-12 -80q18 6 60 6q95 0 155 -55.5t60 -147.5q0 -97 -65.5 -161.5t-180.5 -64.5q-133 0 -229 89z" />
    <glyph glyph-name="six.alt" unicode="&#xf806;" horiz-adv-x="561" 
d="M489 610l-56 -129q-45 24 -95 24q-41 0 -77.5 -28t-49.5 -87q45 31 108 31q96 0 151 -58t55 -148q0 -98 -64 -165t-171 -67q-114 0 -182.5 78.5t-68.5 243.5q0 146 79.5 244.5t218.5 98.5q80 0 152 -38zM206 260q2 -69 26 -100t59 -31t56 23t21 60t-22.5 58t-56.5 22
q-48 0 -83 -32z" />
    <glyph glyph-name="seven.alt" unicode="&#xf807;" horiz-adv-x="561" 
d="M272 0h-174q35 113 101 259.5t116 225.5h-269v145h441v-135q-75 -128 -122.5 -241.5t-92.5 -253.5z" />
    <glyph glyph-name="eight.alt" unicode="&#xf808;" horiz-adv-x="561" 
d="M279 386q75 24 75 78q0 31 -21 49.5t-54 18.5t-54 -18.5t-21 -49.5q0 -54 75 -78zM279 277q-89 -27 -89 -88q0 -35 26 -54t63 -19t63 19t26 54q0 60 -89 88zM126 346q-32 20 -53 54.5t-21 76.5q0 74 62.5 122.5t164.5 48.5t165.5 -49t63.5 -122q0 -42 -21 -76.5
t-53 -54.5q103 -51 103 -163q0 -77 -67.5 -138t-190.5 -61q-122 0 -189 58t-67 139q0 112 103 165z" />
    <glyph glyph-name="nine.alt" unicode="&#xf809;" horiz-adv-x="561" 
d="M67 23l61 129q44 -26 98 -26q59 0 87.5 27t36.5 85q-47 -29 -113 -29q-94 0 -146 60t-52 147q0 98 62 165t168 67q114 0 182 -81t68 -259q0 -62 -16.5 -117.5t-49.5 -103.5t-91.5 -76t-134.5 -28q-90 0 -160 40zM354 374v7q0 62 -22.5 91.5t-58.5 29.5q-35 0 -56 -23
t-21 -60q0 -35 19.5 -56.5t51.5 -22.5q50 0 87 34z" />
    <glyph glyph-name="zero.sups" unicode="&#xf80a;" 
d="M178 374q-80 0 -121.5 50t-41.5 132q0 81 41.5 130.5t121.5 49.5t122 -49.5t42 -130.5t-42 -131.5t-122 -50.5zM178 469q45 0 45 87t-45 87t-45 -87t45 -87z" />
    <glyph glyph-name="one.sups" unicode="&#xf80b;" 
d="M158 384v230q-6 -3 -30 -15.5t-37 -17.5l-43 86l122 60h107v-343h-119z" />
    <glyph glyph-name="two.sups" unicode="&#xf80c;" 
d="M39 384v62q0 25 17.5 49t35 37.5t47.5 32.5q59 36 59 56q0 22 -31 22q-33 0 -80 -29l-55 74q72 48 142 48q62 0 102.5 -27.5t40.5 -78.5q0 -31 -15.5 -56.5t-31.5 -37.5t-48 -31q-22 -13 -42 -27h139v-94h-280z" />
    <glyph glyph-name="three.sups" unicode="&#xf80d;" 
d="M14 418l55 82q46 -31 92 -31q43 0 43 29q0 30 -44 30q-24 0 -51 -7l-25 51l98 63h-129v92h254v-76l-72 -57q85 -13 85 -101q0 -58 -46.5 -88.5t-111.5 -30.5q-74 0 -148 44z" />
    <glyph glyph-name="four.sups" unicode="&#xf80e;" 
d="M21 442v86l149 199h126v-199h36v-86h-36v-58h-110v58h-165zM116 528h70v91z" />
    <glyph glyph-name="five.sups" unicode="&#xf80f;" 
d="M19 418l55 82q47 -31 89 -31q47 0 47 28q0 14 -15.5 21t-33.5 7q-25 0 -58 -11l-52 41l41 172h214v-89h-135l-8 -37q22 2 34 2q56 0 92.5 -25.5t36.5 -78.5q0 -59 -48 -92t-111 -33q-77 0 -148 44z" />
    <glyph glyph-name="six.sups" unicode="&#xf810;" 
d="M314 713l-38 -86q-26 15 -63 15q-53 0 -69 -49q25 14 70 14q57 0 89.5 -31.5t32.5 -77.5q0 -51 -40.5 -87.5t-111.5 -36.5q-66 0 -112 42.5t-46 126.5q0 89 53 141t136 52q45 0 99 -23zM142 512q2 -48 43 -48q17 0 29 8t12 23q0 29 -38 29q-20 0 -46 -12z" />
    <glyph glyph-name="seven.sups" unicode="&#xf811;" 
d="M190 384h-128q48 128 127 251h-150v92h278v-84q-83 -129 -127 -259z" />
    <glyph glyph-name="eight.sups" unicode="&#xf812;" 
d="M72 565q-37 26 -37 71q0 51 44.5 75.5t98.5 24.5t98.5 -24.5t44.5 -75.5q0 -45 -37 -71q52 -30 52 -81q0 -30 -15 -52.5t-39.5 -34.5t-50.5 -17.5t-53 -5.5q-37 0 -70.5 9.5t-60.5 35.5t-27 65q0 48 52 81zM176 596q39 12 39 33q0 13 -11.5 19.5t-25.5 6.5t-25.5 -6.5
t-11.5 -19.5q0 -21 35 -33zM179 529q-43 -16 -43 -42q0 -14 12.5 -21.5t29.5 -7.5t29.5 7.5t12.5 21.5q0 27 -41 42z" />
    <glyph glyph-name="nine.sups" unicode="&#xf813;" 
d="M40 398l37 87q28 -15 67 -15q34 0 49.5 12.5t21.5 38.5q-18 -16 -64 -16q-62 0 -96 31.5t-34 77.5q0 51 40.5 86.5t111.5 35.5q67 0 112.5 -41t45.5 -125q0 -92 -49 -144t-141 -52q-53 0 -101 24zM217 598q-5 49 -44 49q-40 0 -40 -31q0 -28 38 -28q25 0 46 10z" />
    <glyph glyph-name="zero.sinf" unicode="&#xf814;" 
d="M178 -99q-80 0 -121.5 50t-41.5 132q0 81 41.5 130.5t121.5 49.5t122 -49.5t42 -130.5t-42 -131.5t-122 -50.5zM178 -4q45 0 45 87t-45 87t-45 -87t45 -87z" />
    <glyph glyph-name="one.sinf" unicode="&#xf815;" 
d="M158 -89v230q-6 -3 -30 -15.5t-37 -17.5l-43 86l122 60h107v-343h-119z" />
    <glyph glyph-name="two.sinf" unicode="&#xf816;" 
d="M39 -89v62q0 25 17.5 49t35 37.5t47.5 32.5q59 36 59 56q0 22 -31 22q-33 0 -80 -29l-55 74q72 48 142 48q62 0 102.5 -27.5t40.5 -78.5q0 -31 -15.5 -56.5t-31.5 -37.5t-48 -31q-22 -13 -42 -27h139v-94h-280z" />
    <glyph glyph-name="three.sinf" unicode="&#xf817;" 
d="M14 -55l55 82q46 -31 92 -31q43 0 43 29q0 30 -44 30q-24 0 -51 -7l-25 51l98 63h-129v92h254v-76l-72 -57q85 -13 85 -101q0 -58 -46.5 -88.5t-111.5 -30.5q-74 0 -148 44z" />
    <glyph glyph-name="four.sinf" unicode="&#xf818;" 
d="M21 -31v86l149 199h126v-199h36v-86h-36v-58h-110v58h-165zM116 55h70v91z" />
    <glyph glyph-name="five.sinf" unicode="&#xf819;" 
d="M19 -55l55 82q47 -31 89 -31q47 0 47 28q0 14 -15.5 21t-33.5 7q-25 0 -58 -11l-52 41l41 172h214v-89h-135l-8 -37q22 2 34 2q56 0 92.5 -25.5t36.5 -78.5q0 -59 -48 -92t-111 -33q-77 0 -148 44z" />
    <glyph glyph-name="six.sinf" unicode="&#xf81a;" 
d="M314 240l-38 -86q-26 15 -63 15q-53 0 -69 -49q25 14 70 14q57 0 89.5 -31.5t32.5 -77.5q0 -51 -40.5 -87.5t-111.5 -36.5q-66 0 -112 42.5t-46 126.5q0 89 53 141t136 52q45 0 99 -23zM142 39q2 -48 43 -48q17 0 29 8t12 23q0 29 -38 29q-20 0 -46 -12z" />
    <glyph glyph-name="seven.sinf" unicode="&#xf81b;" 
d="M190 -89h-128q48 128 127 251h-150v92h278v-84q-83 -129 -127 -259z" />
    <glyph glyph-name="eight.sinf" unicode="&#xf81c;" 
d="M72 92q-37 26 -37 71q0 51 44.5 75.5t98.5 24.5t98.5 -24.5t44.5 -75.5q0 -45 -37 -71q52 -30 52 -81q0 -30 -15 -52.5t-39.5 -34.5t-50.5 -17.5t-53 -5.5q-37 0 -70.5 9.5t-60.5 35.5t-27 65q0 48 52 81zM176 123q39 12 39 33q0 13 -11.5 19.5t-25.5 6.5t-25.5 -6.5
t-11.5 -19.5q0 -21 35 -33zM179 56q-43 -16 -43 -42q0 -14 12.5 -21.5t29.5 -7.5t29.5 7.5t12.5 21.5q0 27 -41 42z" />
    <glyph glyph-name="nine.sinf" unicode="&#xf81d;" 
d="M40 -75l37 87q28 -15 67 -15q34 0 49.5 12.5t21.5 38.5q-18 -16 -64 -16q-62 0 -96 31.5t-34 77.5q0 51 40.5 86.5t111.5 35.5q67 0 112.5 -41t45.5 -125q0 -92 -49 -144t-141 -52q-53 0 -101 24zM217 125q-5 49 -44 49q-40 0 -40 -31q0 -28 38 -28q25 0 46 10z" />
    <glyph glyph-name="CR" horiz-adv-x="175" 
 />
    <glyph glyph-name="hungarumlaut.cap" horiz-adv-x="440" 
d="M205 717l71 156h162l-117 -156h-116zM2 717l71 156h162l-117 -156h-116z" />
    <glyph glyph-name="cedilla.cap" horiz-adv-x="440" 
d="M97 -216l15 75q36 -12 72 -12q54 0 54 24q0 21 -50 21q-40 0 -69 -10l14 69q36 10 89 10q50 0 85.5 -21.5t35.5 -68.5q0 -52 -41.5 -77.5t-97.5 -25.5q-64 0 -107 16z" />
    <glyph glyph-name="tilde.cap" horiz-adv-x="440" 
d="M68 719l-59 90q58 63 130 63q25 0 70 -21.5t70 -21.5q48 0 94 38l58 -90q-58 -63 -130 -63q-25 0 -69 21.5t-70 21.5q-49 0 -94 -38z" />
    <glyph glyph-name="ogonek.cap" horiz-adv-x="440" 
d="M172 0h102q-52 -52 -52 -77q0 -23 25 -23q27 0 50 17l33 -86q-53 -35 -118 -35q-45 0 -73.5 21.5t-28.5 64.5q0 54 62 118z" />
    <glyph glyph-name="ring.cap" horiz-adv-x="440" 
d="M78 818q0 57 42 97t100 40t100 -40t42 -98q0 -57 -42 -97t-100 -40t-100 40t-42 98zM220 774q18 0 30 12.5t12 30.5t-12 31t-30 13t-30 -12.5t-12 -30.5t12 -31t30 -13z" />
    <glyph glyph-name="caron.cap" horiz-adv-x="440" 
d="M156 717l-116 156h135l45 -68l46 68h134l-116 -156h-128z" />
    <glyph glyph-name="macron.cap" horiz-adv-x="440" 
d="M60 737v116h319v-116h-319z" />
    <glyph glyph-name="dieresis.cap" horiz-adv-x="440" 
d="M262 731v128h141v-128h-141zM37 731v128h141v-128h-141z" />
    <glyph glyph-name="dotaccent.cap" horiz-adv-x="440" 
d="M146 727v136h148v-136h-148z" />
    <glyph glyph-name="circumflex.cap" horiz-adv-x="440" 
d="M40 717l116 156h128l116 -156h-135l-45 68l-46 -68h-134z" />
    <glyph glyph-name="acute.cap" horiz-adv-x="440" 
d="M94 717l73 156h179l-124 -156h-128z" />
    <glyph glyph-name="grave.cap" horiz-adv-x="440" 
d="M218 717l-124 156h179l73 -156h-128z" />
    <glyph glyph-name="breve.cap" horiz-adv-x="440" 
d="M55 863h118q1 -21 13 -33.5t33 -12.5t33.5 12.5t12.5 33.5h119q0 -69 -47.5 -109t-117.5 -40t-117 40t-47 109z" />
    <glyph glyph-name="commaaccent.cap" horiz-adv-x="440" 
d="M108 -209l53 158h172l-99 -158h-126z" />
    <glyph glyph-name="caron.alt" horiz-adv-x="368" 
d="M109 498v169h136l-41 -169h-95z" />
    <glyph glyph-name="revcommaaccent" horiz-adv-x="440" 
d="M116 540l90 142h117l-48 -142h-159z" />
    <glyph glyph-name="at.alt" horiz-adv-x="815" 
d="M301 263v55h-255q-2 75 17.5 137t54.5 104t82.5 70.5t98.5 41.5t104 13q78 0 145 -23.5t119 -68t82 -115.5t30 -160q0 -333 -271 -333q-109 0 -167 58q-20 -24 -60.5 -41.5t-93.5 -17.5q-68 0 -116 30t-48 101q0 75 54.5 113.5t145.5 38.5q54 0 78 -3zM172 415h129v89
h156v-89h103v-97h-103v-157q0 -70 73 -70q69 0 101.5 55t32.5 171q0 133 -74.5 199t-186.5 66q-105 0 -166.5 -51.5t-64.5 -115.5zM301 154v29q-20 4 -44 4q-73 0 -73 -54q0 -45 51 -45q28 0 47 15.5t19 50.5z" />
    </font>
</defs>
</svg>
